<svg id="Layer_1" data-name="Layer 1" xmlns="http://www.w3.org/2000/svg" viewBox="0 0 286.29 286"><title>wallet</title><path d="M290.67,109.7l-32-83.16A30.51,30.51,0,0,0,219.25,9.05l-.69.27L58.73,75.58a30.36,30.36,0,0,0-16.87,38.85l4.39,11.73H36.17A29.83,29.83,0,0,0,6.38,156V263.21A29.83,29.83,0,0,0,36.17,293H238.76a29.83,29.83,0,0,0,29.79-29.79V156a30.11,30.11,0,0,0-.43-4.83l5.53-2.24A30.61,30.61,0,0,0,290.67,109.7Zm-254.5,26H238.76a20.23,20.23,0,0,1,20.14,19.07H16A20.23,20.23,0,0,1,36.17,135.7ZM84.08,107l31.86-15.93,6.55,16.38L90.63,123.36ZM259,263.21a20.28,20.28,0,0,1-20.25,20.26H36.17a20.3,20.3,0,0,1-20.26-20.26V202.43H259Zm0-70.31H15.91V164.3H259Zm11.07-52.82-5,2a29.8,29.8,0,0,0-26.34-15.93H106.35L130.68,114a4.78,4.78,0,0,0,2.3-6L122.87,82.7a4.77,4.77,0,0,0-6.2-2.66l-.36.16L75.89,100.43a4.76,4.76,0,0,0-2.29,6l7.88,19.71H56.43l-5.64-15.06A20.85,20.85,0,0,1,62.38,84.42L222.21,18.16a20.94,20.94,0,0,1,27.37,11.33c.07.16.14.33.2.5l32,83.16A21,21,0,0,1,270.08,140.08Z" transform="translate(-6.38 -7)" style="fill:#fff"/><path d="M177.85,270.07a28.6,28.6,0,0,0,28.73,0,28.6,28.6,0,1,0,14.3-53.33,28.29,28.29,0,0,0-14.3,3.87,28.6,28.6,0,1,0-28.73,49.46Zm36.7-42.64a19,19,0,1,1,6.33,37,18.76,18.76,0,0,1-6.33-1.16A28.49,28.49,0,0,0,214.55,227.43Zm-8,5.43a18.71,18.71,0,0,1,0,25A18.71,18.71,0,0,1,206.58,232.86Zm-14.3-6.59a19,19,0,0,1,6.33,1.16,28.49,28.49,0,0,0,0,35.81,18.76,18.76,0,0,1-6.33,1.16,19.07,19.07,0,1,1,0-38.13Z" transform="translate(-6.38 -7)" style="fill:#fff"/><path d="M207.45,105.37l3.87,8.72L256.8,93.87l-3.87-8.71Z" transform="translate(-6.38 -7)" style="fill:#fff"/><path d="M242.78,65,177.09,95.28l4,8.65,65.68-30.32Z" transform="translate(-6.38 -7)" style="fill:#fff"/></svg>