<svg id="Capa_1" data-name="Capa 1" xmlns="http://www.w3.org/2000/svg" viewBox="0 0 512 353.1"><title>american_express</title><path d="M512,328.28a30.27,30.27,0,0,1-30.27,30.27H30.26A30.26,30.26,0,0,1,0,328.28V35.72A30.26,30.26,0,0,1,30.26,5.45H481.73A30.27,30.27,0,0,1,512,35.72V328.28Z" transform="translate(0 -5.45)" style="fill:#306fc5"/><path d="M21.52,328.28V35.72A30.26,30.26,0,0,1,51.78,5.45H30.26A30.26,30.26,0,0,0,0,35.72V328.28a30.26,30.26,0,0,0,30.26,30.27H51.78A30.26,30.26,0,0,1,21.52,328.28Z" transform="translate(0 -5.45)" style="fill:#202121;opacity:0.15000000596046448;isolation:isolate"/><polygon points="74.59 141.3 89.89 141.3 82.24 121.83 74.59 141.3" style="fill:#fff"/><polygon points="155.95 206.66 155.95 215.7 181.68 215.7 181.68 225.43 155.95 225.43 155.95 235.87 184.46 235.87 197.67 221.26 185.15 206.66 155.95 206.66" style="fill:#fff"/><polygon points="356.9 121.83 348.55 141.3 364.55 141.3 356.9 121.83" style="fill:#fff"/><polygon points="230.35 241.42 230.35 201.79 212.27 221.26 230.35 241.42" style="fill:#fff"/><path d="M264.42,218.37c-.7-4.17-3.48-6.26-7.65-6.26h-14.6v12.51h15.3C261.64,224.62,264.42,222.54,264.42,218.37Z" transform="translate(0 -5.45)" style="fill:#fff"/><path d="M313.09,223.24c1.39-.7,2.09-2.79,2.09-4.87a3.87,3.87,0,0,0-2.09-4.87c-1.39-.7-3.48-.7-5.56-.7H293.62v11.13h13.91C309.61,223.93,311.7,223.93,313.09,223.24Z" transform="translate(0 -5.45)" style="fill:#fff"/><path d="M413.22,109.2v8.34l-4.17-8.34H376.37v8.34l-4.17-8.34H327.69c-7.64,0-13.91,1.39-19.47,4.17V109.2H276.94v4.17c-3.48-2.78-7.65-4.17-13.22-4.17h-112l-7.65,17.38-7.64-17.38H101v8.34l-3.47-8.34H66.94L53,141.88,37,177.34l-.29.7H73l.25-.7,4.18-10.43h9L90.59,178h40.32v-8.35l3.48,8.35h20.16l3.48-8.35V178h96.65V160h1.4c1.39,0,1.39,0,1.39,2.08v15.3h50.06v-4.17a41.59,41.59,0,0,0,18.77,4.17h20.87l4.17-11.12h9.73l4.17,11.12h40.33V166.91l6.26,10.43h32.68V109.2ZM177.5,167.61H166.38V129.36l-.7,1.6v0L149.5,167.61H139.26l-16.69-38.25v38.25H98.93l-4.87-10.43H70.42l-4.87,10.43H53.33L73.9,118.93H91.28l19.47,46.59V118.93h18.42l.33.7h0l8.77,19.09,6.3,14.31.23-.72,13.9-33.38H177.5v48.68Zm48-38.25H198.36v9h26.43v9.74H198.36v9.74h27.12V168.3H186.54V118.93h38.94v10.43Zm49.6,17.93s0,0,.06.05a7,7,0,0,1,.68.82,13.36,13.36,0,0,1,2.46,8.15,1.34,1.34,0,0,1,0,.2s0,.07,0,.11v.06c0,.38,0,.77,0,1.2v9.73H267.9v-5.56c0-2.79,0-7-2.09-9.74a6.41,6.41,0,0,0-2.05-1.4c-1-.67-3-.68-6.29-.68H245v17.38H233.13V118.94h26.42c6.26,0,10.43,0,13.91,2.08s5.46,5.44,5.54,10.81a13.82,13.82,0,0,1-8.32,12.83A9.35,9.35,0,0,1,275.08,147.29Zm23.41,20.32H286.67V118.93h11.82Zm135.59,0h-15.3l-22.25-36.86v30.6l-.07-.07v6.36H384.71v0H372.89l-4.17-10.43H344.38l-4.17,11.12H327c-5.56,0-12.52-1.39-16.69-5.56S304.05,153,304.05,144c0-6.95,1.39-13.91,6.26-19.47,3.47-4.18,9.73-5.57,17.38-5.57h11.13v10.43H327.69c-4.17,0-6.25.7-9,2.79-2.08,2.08-3.47,6.25-3.47,11.12,0,5.56.69,9,3.47,11.82,2.09,2.09,4.87,2.79,8.35,2.79h4.86l16-38.25h17.38l19.47,46.59V119.63h17.38l20.17,34.07V119.63h11.82v48Z" transform="translate(0 -5.45)" style="fill:#fff"/><path d="M265.16,139.21a3.78,3.78,0,0,0,.54-.75,7.48,7.48,0,0,0,1-5.24,4.27,4.27,0,0,0-.11-.64c0-.05,0-.1,0-.16h0a3.89,3.89,0,0,0-2.11-2.36c-1.39-.7-3.48-.7-5.57-.7H245v11.13h13.9c2.09,0,4.18,0,5.57-.7a2.49,2.49,0,0,0,.57-.41h0Z" transform="translate(0 -5.45)" style="fill:#fff"/><path d="M475.11,237.14a26.61,26.61,0,0,0-3.48-13.21V192.64h0v-2.09H438.12c-4.34,0-9.6,4.18-9.6,4.18v-4.18h-32c-4.87,0-11.12,1.4-13.9,4.18v-4.18h-57v4.17c-4.17-3.47-11.82-4.17-15.3-4.17H272.76v4.17c-3.47-3.47-11.82-4.17-16-4.17H215.05L205.31,201l-9-10.43H133.7v70.24h61.19l10.05-10.06,8.71,10.06H252.6v-16h3.48c4.86,0,11.12,0,16-2.09v18.78h31.29V243.4h1.38c2.09,0,2.09,0,2.09,2.09v16H401.4c6.26,0,12.51-1.39,16-4.17v4.17h29.9c6.26,0,12.52-.69,16.69-3.48,6.4-3.84,10.44-10.64,11-18.75,0-.24.06-.48.08-.72l0,0C475.09,238,475.11,237.6,475.11,237.14Zm-219-4.17H242.17v18.08H219.31L206,235.75l0,.05-.65-.75-15.29,16H145.51V202.38h45.2l12.35,13.52,2.6,2.83.35-.36,14.6-16h36.85c7.16,0,15.16,1.76,18.2,9a19.86,19.86,0,0,1,.58,4.86C276.24,230.19,266.5,233,256.08,233Zm69.53-.69c1.39,2.08,2.08,4.86,2.08,9v9.73H315.88v-6.26c0-2.78,0-7.65-2.09-9.74-1.39-2.08-4.18-2.08-8.34-2.08H292.93v18.08H281.11V201.68h26.42c5.56,0,10.43,0,13.91,2.09a12.29,12.29,0,0,1,6.25,11.12,13.86,13.86,0,0,1-8.34,13.22C322.83,229.49,324.91,230.89,325.61,232.28Zm48-20.17H346.47v9h26.42v9.73H346.47v9.74h27.12v10.43H334.65V201.68h38.94Zm29.2,38.94H380.54V240.62h22.25c2.08,0,3.48,0,4.87-1.39a5,5,0,0,0,0-6.95,5.88,5.88,0,0,0-4.18-1.39c-11.12-.7-24.33,0-24.33-15.3,0-7,4.17-14.6,16.69-14.6h22.94v11.82H397.23c-2.09,0-3.48,0-4.87.69S391,215.59,391,217c0,2.09,1.39,2.78,2.78,3.47a8.76,8.76,0,0,0,4.17.7h6.26c6.26,0,10.43,1.39,13.21,4.17,2.09,2.09,3.48,5.57,3.48,10.43C420.87,246.18,414.61,251.05,402.79,251.05Zm59.8-4.87c-2.78,2.78-7.65,4.87-14.6,4.87H425.74V240.62H448c2.09,0,3.49,0,4.87-1.39a5,5,0,0,0,0-6.95,5.83,5.83,0,0,0-4.17-1.39c-11.12-.7-24.33,0-24.33-15.3,0-6.61,3.78-12.58,13.1-14.35A26.59,26.59,0,0,1,441,201h23v11.82H442.43c-2.09,0-3.48,0-4.87.69a5.31,5.31,0,0,0-1.4,3.48c0,2.09.7,2.78,2.79,3.47a8.76,8.76,0,0,0,4.17.7h6.26a21.73,21.73,0,0,1,7.44,1.11c1.92.7,8.3,3.55,9.73,11a16.06,16.06,0,0,1,.21,2.49A14.16,14.16,0,0,1,462.59,246.18Z" transform="translate(0 -5.45)" style="fill:#fff"/></svg>