<svg id="Layer_1" data-name="Layer 1" xmlns="http://www.w3.org/2000/svg" viewBox="0 0 143.95 397.4"><title>confetti</title><path d="M39.37,365.32,26.6,349.68a1.86,1.86,0,0,1,.3-2.66l.81-.61a2,2,0,0,1,2.73.31l12.78,15.65a1.85,1.85,0,0,1-.31,2.65l-.8.62A2,2,0,0,1,39.37,365.32Z" transform="translate(-2.16 -9)" style="fill:#fe4b20"/><path d="M58.71,26.74,43.8,13a1.85,1.85,0,0,1-.07-2.67l.7-.7a2,2,0,0,1,2.75-.07L62.09,23.3A1.84,1.84,0,0,1,62.16,26l-.7.71A2,2,0,0,1,58.71,26.74Z" transform="translate(-2.16 -9)" style="fill:#fe4b20"/><polygon points="0 258.65 6.39 251.43 13.83 257.61 7.44 264.83 0 258.65" style="fill:#9186f4"/><polygon points="131.25 388.55 140.39 385.08 143.95 393.93 134.82 397.4 131.25 388.55" style="fill:#9186f4"/><polygon points="50.05 192.46 59.18 188.99 62.75 197.84 53.62 201.31 50.05 192.46" style="fill:#fe4b20"/><path d="M46.86,79.84l9,9.2a1.55,1.55,0,0,1-.07,2.24h0a1.68,1.68,0,0,1-2.31-.06l-9-9.2a1.55,1.55,0,0,1,.06-2.24h0A1.68,1.68,0,0,1,46.86,79.84Z" transform="translate(-2.16 -9)" style="fill:#9186f4"/><path d="M83.16,295.61l-6.44,11a1.68,1.68,0,0,1-2.24.61h0a1.56,1.56,0,0,1-.6-2.18l6.44-11a1.68,1.68,0,0,1,2.24-.61h0A1.56,1.56,0,0,1,83.16,295.61Z" transform="translate(-2.16 -9)" style="fill:#9186f4"/><path d="M85.1,74.28l4.79,5.32-2.54,6.62a.57.57,0,0,0,.77.71l6.7-2.77,5.71,4.37a.58.58,0,0,0,.94-.49l-.64-7,6.07-3.92a.55.55,0,0,0-.19-1l-7.1-1.58-2-6.79a.59.59,0,0,0-1.06-.14l-3.75,6.06-7.27-.28A.56.56,0,0,0,85.1,74.28Z" transform="translate(-2.16 -9)" style="fill:#ffdc64"/><path d="M92.94,91.69c.09-.61.86-2.85,1.31-4.15a.2.2,0,0,1,.39,0,43.36,43.36,0,0,1,.1,4.34.91.91,0,0,1-1,.75A.89.89,0,0,1,92.94,91.69Z" transform="translate(-2.16 -9)" style="fill:#fff082"/><path d="M82.22,81.78c.62-.11,2.9-1,4.21-1.46a.2.2,0,0,0-.07-.38,43.57,43.57,0,0,0-4.48.12.88.88,0,0,0-.72,1A.9.9,0,0,0,82.22,81.78Z" transform="translate(-2.16 -9)" style="fill:#fff082"/><path d="M88.39,67.31c.3.54,1.82,2.38,2.72,3.45a.2.2,0,0,0,.34-.19A43,43,0,0,0,90,66.48a.91.91,0,0,0-1.22-.36A.86.86,0,0,0,88.39,67.31Z" transform="translate(-2.16 -9)" style="fill:#fff082"/><path d="M107.56,85c-.57-.26-2.54-1.65-3.68-2.46a.2.2,0,0,1,.17-.35c1.37.35,3.72,1,4.29,1.23a.86.86,0,0,1,.43,1.17A.92.92,0,0,1,107.56,85Z" transform="translate(-2.16 -9)" style="fill:#fff082"/><path d="M105.67,69.57c-.43.44-2.41,1.83-3.56,2.63a.2.2,0,0,1-.29-.26,42.81,42.81,0,0,1,2.54-3.58.92.92,0,0,1,1.28,0A.86.86,0,0,1,105.67,69.57Z" transform="translate(-2.16 -9)" style="fill:#fff082"/><path d="M88.27,83.81l-.92,2.41a.57.57,0,0,0,.77.71l6.7-2.77,5.71,4.37a.58.58,0,0,0,.94-.49l-.64-7,6.07-3.92a.55.55,0,0,0-.19-1l-.95-.21A45.78,45.78,0,0,1,88.27,83.81Z" transform="translate(-2.16 -9)" style="fill:#ffc850"/></svg>