<svg id="Layer_1" data-name="Layer 1" xmlns="http://www.w3.org/2000/svg" viewBox="0 0 239.72 239.72"><title>Deactivate account</title><path d="M73.1,5.14H177c40.63,0,67.84,28.53,67.84,71V174c0,42.31-27.21,70.83-67.84,70.83H73.1c-40.63,0-68-28.52-68-70.83V76.1C5.14,33.67,32.47,5.14,73.1,5.14Zm51.78,84.63a10.49,10.49,0,1,1,10.67-10.42A10.42,10.42,0,0,1,124.88,89.77Zm10.55,80.55a10.49,10.49,0,0,1-21,0v-53a10.49,10.49,0,1,1,21,0Z" transform="translate(-5.14 -5.14)" style="fill:#333;fill-rule:evenodd"/></svg>