<svg id="Layer_1" data-name="Layer 1" xmlns="http://www.w3.org/2000/svg" viewBox="0 0 439 262.86"><title>debitCard</title><rect y="1" width="439" height="261.86" rx="30.81" style="fill:#072777"/><path d="M2.29,127.19A99.36,99.36,0,0,1,143.22,265.36H410.48a30.81,30.81,0,0,0,30.81-30.81V34.31A30.81,30.81,0,0,0,410.48,3.5H33.09A30.8,30.8,0,0,0,2.29,34.31Z" transform="translate(-2.29 -2.5)" style="fill:#ff7800;fill-rule:evenodd;opacity:0.20000000298023224;isolation:isolate"/><path d="M2.29,98.46c31.28-43.1,83.43-71.32,142.48-71.32,95.7,0,173.29,74.14,173.29,165.59a158.9,158.9,0,0,1-17,71.63H410.48a30.81,30.81,0,0,0,30.81-30.81V33.31A30.81,30.81,0,0,0,410.48,2.5H33.09A30.8,30.8,0,0,0,2.29,33.31Z" transform="translate(-2.29 -2.5)" style="fill:#072777;fill-opacity:0.6000000238418579;fill-rule:evenodd"/></svg>