<svg id="Layer_1" data-name="Layer 1" xmlns="http://www.w3.org/2000/svg" viewBox="0 0 241.81 241.81"><title>faq</title><circle cx="120.9" cy="120.9" r="120.9" style="fill:#333"/><path d="M132.09,144.69H111.78v-9.31q0-7.11,1.69-10.49,1.69-3.56,7.45-9.31l13-13.2a14.9,14.9,0,0,0,4.24-11,13.81,13.81,0,0,0-4.41-10.66A14.66,14.66,0,0,0,123,76.48a15.87,15.87,0,0,0-11.68,4.74A19.22,19.22,0,0,0,106,93.07l-21.66-1.7q1.86-15.9,12.52-25.05t26.92-9.14q15.57,0,25.56,8.8,10.15,8.64,10.15,24.21a28.61,28.61,0,0,1-2.54,12,35.1,35.1,0,0,1-5.58,9q-2.88,3.21-8.47,8.46c-.79.68-1.41,1.24-1.86,1.69q-3.88,3.73-5.24,5.25a15.2,15.2,0,0,0-2.54,4.57,18.73,18.73,0,0,0-1.19,7.11Zm-19.63,32.67a11.92,11.92,0,0,1-4.07-9.14,12.7,12.7,0,0,1,3.9-9.31,13.49,13.49,0,0,1,9.65-3.89,13.19,13.19,0,0,1,9.47,3.72,11.92,11.92,0,0,1,4.07,9.14,12.44,12.44,0,0,1-4.07,9.31,12.87,12.87,0,0,1-9.47,3.9A13.59,13.59,0,0,1,112.46,177.36Z" transform="translate(-3.69 -3.69)" style="fill:#fff"/></svg>