<svg id="Layer_1" data-name="Layer 1" xmlns="http://www.w3.org/2000/svg" viewBox="0 0 290 290.01"><title>invest_icon</title><g style="opacity:0.30000001192092896"><path d="M53.16,262.18a5.67,5.67,0,0,0-9.67,4,5.67,5.67,0,0,0,11.33,0A5.75,5.75,0,0,0,53.16,262.18Z" transform="translate(-5 -4.5)" style="fill:#072777"/><path d="M270.92,108.11a5.66,5.66,0,1,0,1.66,4A5.7,5.7,0,0,0,270.92,108.11Z" transform="translate(-5 -4.5)" style="fill:#072777"/><path d="M293.34,6.16a5.63,5.63,0,0,0-4-1.66H150a5.67,5.67,0,0,0-5.67,5.67v16.2L90.64,40.75a5.67,5.67,0,0,0-4,6.94l27.83,103.85L90.39,175.61a17,17,0,0,0-14-7.41H22a17,17,0,0,0-17,17v92.32a17,17,0,0,0,17,17H76.37a17,17,0,0,0,16.49-12.9l6.73,5.87a28.52,28.52,0,0,0,18.76,7h171a5.67,5.67,0,0,0,5.66-5.67V10.16A5.66,5.66,0,0,0,293.34,6.16ZM82,277.51a5.68,5.68,0,0,1-5.66,5.67H22a5.67,5.67,0,0,1-5.66-5.67V185.19A5.67,5.67,0,0,1,22,179.52H43.51v65.25a5.67,5.67,0,1,0,11.33,0V179.52H76.37A5.67,5.67,0,0,1,82,185.19v92.32Zm17-227.28,45.28-12.14v21l-3.79,1a5.67,5.67,0,0,0-4,6.94,15.27,15.27,0,0,1-10.78,18.68,5.66,5.66,0,0,0-4,6.94l22.08,81.76H132.46L126.6,151.5a5.72,5.72,0,0,0-.95-2Zm45.28,34.83v47.79L134,94.6A26.48,26.48,0,0,0,144.33,85.06Zm81.38,198.12H118.35A17.21,17.21,0,0,1,107,278.94L93.36,267V188.67l24.73-24.73,4.48,17.55a5.67,5.67,0,0,0,5.49,4.26H239.42a7.93,7.93,0,1,1,0,15.86H182.36a5.67,5.67,0,0,0,0,11.33h74.79a7.93,7.93,0,0,1,0,15.86H182.36a5.67,5.67,0,0,0,0,11.33H245A7.93,7.93,0,1,1,245,256H182.36a5.67,5.67,0,0,0,0,11.33h43.35a7.93,7.93,0,0,1,0,15.86Zm58,0H243.25a19.14,19.14,0,0,0,0-15.86H245a19.28,19.28,0,0,0,19.26-19.26,19,19,0,0,0-2.05-8.62,19.24,19.24,0,0,0,10.37-30V137.61a5.67,5.67,0,0,0-11.33,0v64.45a19.36,19.36,0,0,0-4.13-.45H257a19.23,19.23,0,0,0-17.54-27.18h-9.11a27.11,27.11,0,1,0-21.29,0h-31V66.73a26.67,26.67,0,0,0,20.3-20.31H241a26.67,26.67,0,0,0,20.31,20.31V84.34a5.66,5.66,0,1,0,11.32,0V61.67A5.66,5.66,0,0,0,266.94,56a15.27,15.27,0,0,1-15.25-15.25A5.67,5.67,0,0,0,246,35.09H193.31a5.67,5.67,0,0,0-5.67,5.66A15.27,15.27,0,0,1,172.39,56a5.66,5.66,0,0,0-5.66,5.67V174.43H155.66V15.83h128Zm-64-117.9a15.78,15.78,0,1,1,15.78-15.78A15.8,15.8,0,0,1,219.67,165.28Z" transform="translate(-5 -4.5)" style="fill:#072777"/></g></svg>