<svg id="Layer_1" data-name="Layer 1" xmlns="http://www.w3.org/2000/svg" viewBox="0 0 256.88 299.73"><title>messages</title><path d="M108.69,258.15l-2.32-5.36-6.6,2.86,4.11,5.86ZM56.21,259,60.39,263l6.16-6.27-8.15-3.23Zm-.06.06L52,254.94l-6.26,6.37L54,264.48Zm93.41,35.52L147.45,300l5.12-10.49ZM140,216.7a61.34,61.34,0,0,1-33.63,36.09L111,263.5a73.13,73.13,0,0,0,40.07-43Zm-38.3-78c32.37,11.09,49.46,46,38.3,78l11.08,3.79c13.32-38.13-7.11-79.67-45.52-92.83ZM23,176.6c11.16-32,46.39-49,78.75-37.88l3.86-11.06c-38.4-13.15-80.37,7-93.69,45.14ZM58.4,253.53A61.16,61.16,0,0,1,23,176.6l-11.08-3.8C-1,209.81,17.8,250,54,264.39ZM52,254.88l-.06.06,8.36,8.15.06-.06Zm2,9.6L147.45,300l4.23-10.92L58.26,253.56Zm98.53,25a160.11,160.11,0,0,1-20-15.09c-7.75-6.68-15-13.91-19-19.64l-9.62,6.73c4.86,6.93,13,14.91,20.93,21.77s16.27,13.06,21.74,16.29Z" transform="translate(-7.8 -0.27)" style="fill:#fff"/><ellipse cx="32.69" cy="195.92" rx="7.72" ry="7.65" style="fill:#fff"/><ellipse cx="71.31" cy="195.92" rx="7.72" ry="7.65" style="fill:#fff"/><ellipse cx="109.93" cy="195.92" rx="7.72" ry="7.65" style="fill:#fff"/><path d="M218.22,134.78l-2.32-5.36-6.59,2.86,4.1,5.86Zm-52.48.81,4.19,4.07,6.15-6.27-8.14-3.23Zm-.06.06-4.18-4.08-6.26,6.37,8.33,3.17Zm93.42,35.52L257,176.63l5.12-10.49Zm-9.57-77.84a61.31,61.31,0,0,1-33.63,36.09l4.65,10.71a73.11,73.11,0,0,0,40.06-43Zm-38.29-78c32.36,11.09,49.45,46,38.29,78l11.08,3.79C273.93,59,253.5,17.45,215.1,4.29ZM132.48,53.23c11.16-32,46.39-49,78.76-37.88L215.1,4.29c-38.4-13.15-80.38,7-93.69,45.14Zm35.46,76.93a61.16,61.16,0,0,1-35.46-76.93l-11.07-3.8c-12.93,37,5.93,77.21,42.14,91.59Zm-6.38,1.35-.06.06,8.37,8.16.06-.07Zm2,9.6L257,176.63l4.23-10.92L167.8,130.19Zm98.53,25a160.11,160.11,0,0,1-20.05-15.09c-7.75-6.68-15-13.91-19-19.64l-9.63,6.73c4.86,6.93,13,14.91,20.93,21.76s16.27,13.07,21.75,16.3Z" transform="translate(-7.8 -0.27)" style="fill:#fff"/><ellipse cx="142.22" cy="72.54" rx="7.72" ry="7.65" style="fill:#fff"/><ellipse cx="180.85" cy="72.54" rx="7.72" ry="7.65" style="fill:#fff"/><ellipse cx="219.46" cy="72.54" rx="7.72" ry="7.65" style="fill:#fff"/></svg>