<svg id="Layer_1" data-name="Layer 1" xmlns="http://www.w3.org/2000/svg" viewBox="0 0 142 142"><title>portfolio</title><path d="M42,21A27.39,27.39,0,0,0,39.5,32.4v68.16c0,15.68,13.24,28.4,29.58,28.4H96.21a29.67,29.67,0,0,1-27.13,17H33.58C17.24,146,4,133.28,4,117.6V49.44C4,33.76,17.24,21,33.58,21Zm0,0A29.66,29.66,0,0,1,69.08,4h47.34C132.75,4,146,16.72,146,32.4v68.16c0,15.68-13.25,28.4-29.58,28.4H96.21a27.39,27.39,0,0,0,2.46-11.36V49.44C98.67,33.76,85.42,21,69.08,21Z" transform="translate(-4 -4)" style="fill:#d2d4d9;fill-rule:evenodd"/></svg>