<svg id="Layer_1" data-name="Layer 1" xmlns="http://www.w3.org/2000/svg" viewBox="0 0 363.07 389.5"><title>safe_pay</title><path d="M115.2,161.6V92.48a91.37,91.37,0,0,1,20.27-58c13.06-15.9,31-25.9,50.42-28s38.81,3.69,54.5,16.4S266.92,54.21,270.8,75.2" transform="translate(-11.47 -5.5)" style="fill:none;stroke:#fff;stroke-linecap:round;stroke-linejoin:round"/><path d="M348.6,187.53v25.94H37.4V187.53ZM37.4,239.4H348.6V369.07H37.4Zm311.2-77.8H37.4a25.93,25.93,0,0,0-25.93,25.93V369.07A25.93,25.93,0,0,0,37.4,395H348.6a25.93,25.93,0,0,0,25.93-25.93V187.53A25.93,25.93,0,0,0,348.6,161.6ZM270.8,317.2h51.87v25.93H270.8Z" transform="translate(-11.47 -5.5)" style="fill:#fff;fill-rule:evenodd"/></svg>