<svg id="Layer_1" data-name="Layer 1" xmlns="http://www.w3.org/2000/svg" viewBox="0 0 238 238"><title>Security</title><path d="M184.63,156a8.93,8.93,0,0,0,8.93-8.92V125a8.93,8.93,0,0,0-8.93-8.93H116.9a31,31,0,1,0,0,17.85H142V147a8.93,8.93,0,0,0,17.85,0V133.92h15.83V147A8.92,8.92,0,0,0,184.63,156ZM73.42,6H176.59C216.9,6,244,34.3,244,76.41V173.6c0,42.11-27.1,70.4-67.43,70.4H73.42C33.1,244,6,215.71,6,173.6V76.41C6,34.3,33.1,6,73.42,6Zm.87,119a13.12,13.12,0,1,1,13.12,13.1A13.13,13.13,0,0,1,74.29,125Z" transform="translate(-6 -6)" style="fill:#333;fill-rule:evenodd"/></svg>