<svg id="Layer_1" data-name="Layer 1" xmlns="http://www.w3.org/2000/svg" viewBox="0 0 224.59 233.35"><title>upload ID</title><path d="M85.31,45a8.59,8.59,0,0,0,1,11.27,8.67,8.67,0,0,0,12.24,0l17.86-18V84.79h17.29V38.3l17.85,18,1,.84A8.65,8.65,0,0,0,163.74,44L131.07,11.23l-1-.91A8.45,8.45,0,0,0,125,8.65a8.57,8.57,0,0,0-6.17,2.58L86.15,44ZM60.22,84.84c-26.43,1.25-47.51,23.48-47.51,50.56v55.76l0,2.38C14,220.44,35.84,242,62.68,242H187.44l2.34-.06c26.43-1.24,47.51-23.48,47.51-50.67V135.63l0-2.39c-1.23-27-23.19-48.45-49.92-48.45H133.65v68.55l-.08,1.21a8.64,8.64,0,0,1-17.22-1.21V84.79H62.56Z" transform="translate(-12.71 -8.65)" style="fill:#333;fill-rule:evenodd"/></svg>