<svg id="Layer_1" data-name="Layer 1" xmlns="http://www.w3.org/2000/svg" viewBox="0 0 398.09 250"><title>verve</title><g id="Page-1"><g id="verve"><rect id="Rectangle-path" width="398.09" height="250" rx="21.23" style="fill:#00425f"/><circle id="Oval" cx="82.94" cy="114.38" r="61.18" style="fill:#ee312a"/><path id="Shape" d="M83.9,145.16c-13.69-31-23.72-60-23.72-60h-21S52,122.36,75.69,168.87H92.11c23.72-46.51,36.49-83.7,36.49-83.7h-21S97.58,114.14,83.9,145.16Z" transform="translate(-0.96 -4.57)" style="fill:#fff"/><path id="Shape-2" data-name="Shape" d="M376.78,141.3h-41S336.64,155,354.88,155a72.8,72.8,0,0,0,18.25-2.74L375,166.84a64.56,64.56,0,0,1-21.89,3.65c-18.24,0-34.66-9.12-34.66-34.66,0-20.06,12.77-32.83,31-32.83C376.78,103,378.6,130.36,376.78,141.3ZM348.5,115.77c-11.86,0-12.77,12.76-12.77,12.76h25.54S360.36,115.77,348.5,115.77Z" transform="translate(-0.96 -4.57)" style="fill:#fff"/><path id="Shape-3" data-name="Shape" d="M235.74,119.62l2.74-14.6s-21.14-6.41-38.31,5.48v58.37h18.24V121.44C225.71,116,235.74,119.62,235.74,119.62Z" transform="translate(-0.96 -4.57)" style="fill:#fff"/><path id="Shape-4" data-name="Shape" d="M185.89,141.3h-41S145.76,155,164,155a72.78,72.78,0,0,0,18.24-2.74l1.83,14.59a64.66,64.66,0,0,1-21.9,3.65c-18.24,0-34.66-9.12-34.66-34.66,0-20.06,12.77-32.83,31-32.83C185.89,103,187.71,130.36,185.89,141.3Zm-28.28-25.53c-11.85,0-12.77,12.76-12.77,12.76h25.54S169.47,115.77,157.61,115.77Z" transform="translate(-0.96 -4.57)" style="fill:#fff"/><path id="Shape-5" data-name="Shape" d="M280,147a284.11,284.11,0,0,1-13.68-42.51H248.12s9.12,35.21,24.63,64.39h14.59C302.85,139.69,312,104.49,312,104.49H293.73A284,284,0,0,1,280,147Z" transform="translate(-0.96 -4.57)" style="fill:#fff"/></g></g></svg>