<svg id="Layer_1" data-name="Layer 1" xmlns="http://www.w3.org/2000/svg" viewBox="0 0 780 500"><title>visa</title><path d="M40,8.79H740a40,40,0,0,1,40,40v420a40,40,0,0,1-40,40H40a40,40,0,0,1-40-40v-420A40,40,0,0,1,40,8.79Z" transform="translate(0 -8.79)" style="fill:#0e4595"/><path d="M293.2,357.52l33.36-195.76h53.36L346.54,357.52ZM539.31,166a137.69,137.69,0,0,0-47.82-8.23c-52.73,0-89.87,26.55-90.18,64.61-.3,28.13,26.51,43.82,46.75,53.18,20.77,9.6,27.75,15.72,27.65,24.29-.13,13.12-16.58,19.11-31.92,19.11-21.36,0-32.7-3-50.22-10.27l-6.88-3.11-7.49,43.82c12.46,5.46,35.51,10.2,59.44,10.44,56.09,0,92.5-26.24,92.91-66.88.2-22.27-14-39.22-44.8-53.19-18.65-9.05-30.07-15.1-29.95-24.27,0-8.13,9.67-16.84,30.56-16.84a98.57,98.57,0,0,1,39.94,7.5l4.78,2.26L539.31,166m137.31-4.23H635.39c-12.78,0-22.33,3.49-27.94,16.24L528.2,357.39h56s9.16-24.13,11.24-29.42l68.33.08c1.6,6.86,6.49,29.34,6.49,29.34h49.52L676.62,161.75ZM611.2,288.16c4.41-11.28,21.26-54.72,21.26-54.72-.31.52,4.38-11.33,7.08-18.68l3.6,16.87s10.22,46.73,12.35,56.53ZM247.9,161.75l-52.24,133.5-5.56-27.13c-9.73-31.27-40-65.15-73.9-82.12L164,357.2l56.46-.06,84-195.39H247.9" transform="translate(0 -8.79)" style="fill:#fff"/><path d="M146.92,161.75h-86l-.68,4.07c66.94,16.2,111.23,55.36,129.62,102.41l-18.71-90c-3.23-12.4-12.6-16.1-24.19-16.53" transform="translate(0 -8.79)" style="fill:#f2ae14"/></svg>