<svg id="Layer_1" data-name="Layer 1" xmlns="http://www.w3.org/2000/svg" viewBox="0 0 232 232"><title>Chat</title><path d="M9,125.17C9,64.07,57.84,9,125.23,9,191.12,9,241,63,241,124.83,241,196.51,182.54,241,125,241c-19,0-40.14-5.11-57.07-15.1C62,222.3,57,219.62,50.64,221.72l-23.43,7c-5.91,1.85-11.25-2.79-9.51-9.07l7.77-26a12.12,12.12,0,0,0-.81-10.45C14.68,164.79,9,144.69,9,125.17Zm100.92,0a14.85,14.85,0,1,0,29.7.12,14.85,14.85,0,0,0-29.7-.12Zm53.48.12a14.85,14.85,0,1,0,14.84-14.87A14.89,14.89,0,0,0,163.4,125.29ZM71.29,140.16a14.87,14.87,0,0,1,0-29.74,14.81,14.81,0,0,1,14.85,14.87A15,15,0,0,1,71.29,140.16Z" transform="translate(-9 -9)" style="fill:#333;fill-rule:evenodd"/></svg>