<svg id="Layer_1" data-name="Layer 1" xmlns="http://www.w3.org/2000/svg" viewBox="0 0 316.77 179.4"><title>invite_friend_illustration</title><path d="M17.09,88V79.5h1.15V88Zm3.07,0V82.31h1.08v.88h0a1.54,1.54,0,0,1,.72-.73,2.21,2.21,0,0,1,1.15-.29,2.07,2.07,0,0,1,1.48.55,2.1,2.1,0,0,1,.59,1.62V88H24.12V84.64a1.44,1.44,0,0,0-.38-1.1,1.24,1.24,0,0,0-.92-.36,1.49,1.49,0,0,0-1.15.48,2,2,0,0,0-.43,1.41V88Zm8.3,0-2.32-5.69h1.25l1.7,4.36,1.63-4.36h1.16L29.64,88Zm4.45,0V82.31H34V88Zm0-7.16a.8.8,0,0,1-.22-.57.75.75,0,0,1,.22-.55.78.78,0,0,1,.57-.24.82.82,0,0,1,.79.79.78.78,0,0,1-.24.57.75.75,0,0,1-.55.22A.8.8,0,0,1,32.88,80.84Zm5.87,1.47v.94H37.21v2.58c0,.21,0,.38,0,.49a2.61,2.61,0,0,0,.08.38.56.56,0,0,0,.25.34,1.06,1.06,0,0,0,.47.1,1.49,1.49,0,0,0,.77-.17v1a2,2,0,0,1-1,.19A2.24,2.24,0,0,1,37,88a1.53,1.53,0,0,1-.5-.27,1.19,1.19,0,0,1-.27-.46,3.16,3.16,0,0,1-.09-.5c0-.14,0-.33,0-.57v-3H34.88v-.94h1.25V80.72h1.08v1.59Zm6.77,3.24H41a1.47,1.47,0,0,0,.57,1.19,2.07,2.07,0,0,0,1.35.47,2,2,0,0,0,1.56-.85l.82.62a3,3,0,0,1-2.52,1.16,2.79,2.79,0,0,1-2.12-.84,3.2,3.2,0,0,1,0-4.28,2.83,2.83,0,0,1,2.11-.85,2.45,2.45,0,0,1,2.08.89,3.28,3.28,0,0,1,.69,2.11ZM41,84.69h3.41a1.74,1.74,0,0,0-.44-1.2,1.5,1.5,0,0,0-1.2-.46,1.66,1.66,0,0,0-1.26.53A1.57,1.57,0,0,0,41,84.69ZM51.84,88l-2.37-5.73h1.25l1.69,4.44h0L54,82.31h1.17l-2.7,6.91a3.76,3.76,0,0,1-.73,1.26,1.65,1.65,0,0,1-1.22.4,2.47,2.47,0,0,1-1-.16l.14-1a1.63,1.63,0,0,0,.64.13.89.89,0,0,0,.69-.23,2,2,0,0,0,.42-.7Zm5.7-4.31A2,2,0,0,0,57,85.16a2,2,0,0,0,.51,1.42,1.93,1.93,0,0,0,2.72,0,2,2,0,0,0,.52-1.42,2,2,0,0,0-.52-1.43,2,2,0,0,0-2.72,0Zm-.78,3.55a3,3,0,0,1,0-4.24,3.08,3.08,0,0,1,4.29,0,3,3,0,0,1,0,4.24,3.11,3.11,0,0,1-4.29,0Zm11.56-5V88H67.24v-.88h0a1.73,1.73,0,0,1-.72.75,2.42,2.42,0,0,1-1.16.27,2.08,2.08,0,0,1-1.47-.54A2.12,2.12,0,0,1,63.28,86V82.31h1.08v3.36a1.52,1.52,0,0,0,.36,1.12,1.33,1.33,0,0,0,.94.35,1.49,1.49,0,0,0,1.14-.47,2.07,2.07,0,0,0,.44-1.43V82.31ZM70,88V82.31H71v.88h0a1.67,1.67,0,0,1,.69-.73,1.88,1.88,0,0,1,1-.29,1.51,1.51,0,0,1,.48.07l0,1.16a2.44,2.44,0,0,0-.53-.08c-1.09,0-1.63.61-1.63,1.82V88Zm8.2,0V83.25H76.93v-.94h1.22V81a2.68,2.68,0,0,1,.44-1.7,1.85,1.85,0,0,1,1.5-.56,3.23,3.23,0,0,1,.81.09l-.12,1a1.66,1.66,0,0,0-.61-.11.81.81,0,0,0-.75.31,2,2,0,0,0-.18,1v1.31h1.29v.94h-1.3V88Zm3.58,0V82.31h1.08v.88h0a1.64,1.64,0,0,1,.68-.73,1.88,1.88,0,0,1,1-.29,1.43,1.43,0,0,1,.48.07l0,1.16a2.44,2.44,0,0,0-.53-.08c-1.09,0-1.63.61-1.63,1.82V88Zm4.52,0V82.31h1.08V88Zm0-7.16a.81.81,0,0,1-.23-.57.76.76,0,0,1,.23-.55.77.77,0,0,1,.56-.24.72.72,0,0,1,.55.24.74.74,0,0,1,.24.55.78.78,0,0,1-.24.57.74.74,0,0,1-.55.22A.79.79,0,0,1,86.23,80.84Zm8.2,4.71H89.87a1.46,1.46,0,0,0,.56,1.19,2.1,2.1,0,0,0,1.36.47,2,2,0,0,0,1.56-.85l.81.62a3,3,0,0,1-2.52,1.16,2.79,2.79,0,0,1-2.12-.84,3.2,3.2,0,0,1,0-4.28,2.84,2.84,0,0,1,2.11-.85,2.45,2.45,0,0,1,2.08.89,3.29,3.29,0,0,1,.7,2.11Zm-4.56-.86h3.4a1.74,1.74,0,0,0-.44-1.2,1.5,1.5,0,0,0-1.2-.46,1.69,1.69,0,0,0-1.26.53A1.56,1.56,0,0,0,89.87,84.69ZM95.72,88V82.31H96.8v.88h0a1.64,1.64,0,0,1,.72-.73,2.21,2.21,0,0,1,1.15-.29,2.06,2.06,0,0,1,1.48.55,2.1,2.1,0,0,1,.59,1.62V88H99.68V84.64a1.47,1.47,0,0,0-.37-1.1,1.26,1.26,0,0,0-.93-.36,1.5,1.5,0,0,0-1.15.48,2,2,0,0,0-.43,1.41V88Zm12.37-9.07V88H107v-.82h0a2.12,2.12,0,0,1-.85.71,2.62,2.62,0,0,1-1.13.25,2.76,2.76,0,0,1-2.1-.85,3.28,3.28,0,0,1,0-4.27,2.76,2.76,0,0,1,2.1-.85,2.65,2.65,0,0,1,1.15.26,1.92,1.92,0,0,1,.83.7h0v-4.2Zm-4.32,7.65a1.93,1.93,0,0,0,2.72,0,2,2,0,0,0,.52-1.42,2,2,0,0,0-.52-1.43,2,2,0,0,0-2.72,0,2,2,0,0,0-.51,1.43A2,2,0,0,0,103.77,86.58Zm9.82-3.48-.84.64a1.44,1.44,0,0,0-1.17-.56,1.28,1.28,0,0,0-.67.16.55.55,0,0,0-.28.47.53.53,0,0,0,.09.3.79.79,0,0,0,.18.22,1.12,1.12,0,0,0,.29.14l.3.11.33.07.27,0a3,3,0,0,1,1.22.55,1.36,1.36,0,0,1,.43,1.11,1.5,1.5,0,0,1-.68,1.34,2.85,2.85,0,0,1-1.62.44,3.19,3.19,0,0,1-1.26-.22,2.46,2.46,0,0,1-.94-.78l.82-.68a2,2,0,0,0,1.38.68,1.71,1.71,0,0,0,.8-.18.59.59,0,0,0,.3-.78.41.41,0,0,0-.14-.21l-.19-.13a.88.88,0,0,0-.27-.11l-.24-.08a1.26,1.26,0,0,0-.26-.06l-.22,0a6.53,6.53,0,0,1-.67-.19,2.85,2.85,0,0,1-.54-.29,1.11,1.11,0,0,1-.4-.46,1.75,1.75,0,0,1-.13-.68,1.5,1.5,0,0,1,.64-1.3,2.6,2.6,0,0,1,1.52-.45A2.1,2.1,0,0,1,113.59,83.1Z" transform="translate(-16.5 -15)" style="fill:#072777"/><path d="M20.94,97.6l-.63.49a1.55,1.55,0,0,0-1.37-.69,1.74,1.74,0,0,0-1.06.33,1.11,1.11,0,0,0-.45,1,1,1,0,0,0,.37.84,2.63,2.63,0,0,0,.91.48c.35.11.71.23,1.06.36a2.14,2.14,0,0,1,.91.63,1.69,1.69,0,0,1,.38,1.14,1.81,1.81,0,0,1-.72,1.49,2.54,2.54,0,0,1-1.61.56,2.59,2.59,0,0,1-2.23-1.05l.65-.47a1.87,1.87,0,0,0,2.66.51,1.2,1.2,0,0,0,.2-1.71,1.46,1.46,0,0,0-.67-.44l-.88-.31c-.31-.11-.6-.23-.87-.35a1.58,1.58,0,0,1-.67-.59,1.8,1.8,0,0,1-.27-1,1.77,1.77,0,0,1,.67-1.49,2.77,2.77,0,0,1,3.62.34Zm2.15,1.72V104h-.66V99.32Zm0-2.14a.46.46,0,0,1,0,.68.49.49,0,0,1-.33.14.49.49,0,0,1-.34-.14.48.48,0,0,1,0-.68.49.49,0,0,1,.34-.14A.49.49,0,0,1,23.09,97.18ZM24.68,104v-3.64c0-.11,0-.45-.05-1h.71V100h0a1.6,1.6,0,0,1,.65-.61,1.8,1.8,0,0,1,.86-.22,1.45,1.45,0,0,1,1.49,1,1.52,1.52,0,0,1,.63-.7,1.88,1.88,0,0,1,2.23.21,1.91,1.91,0,0,1,.44,1.35v3H31v-2.73a1.93,1.93,0,0,0-.26-1.11,1.06,1.06,0,0,0-.92-.36,1.1,1.1,0,0,0-1,.49,2.21,2.21,0,0,0-.32,1.22V104h-.66v-2.73a1.93,1.93,0,0,0-.26-1.11,1.06,1.06,0,0,0-.92-.36l-.21,0a1.32,1.32,0,0,0-.32.13,1.29,1.29,0,0,0-.38.28,1.51,1.51,0,0,0-.29.53,2.66,2.66,0,0,0-.12.84V104Zm8.51,2.88V99.32h.66v.78h0a1.94,1.94,0,0,1,.8-.67,2.52,2.52,0,0,1,1-.23,2.46,2.46,0,1,1,0,4.92,2.52,2.52,0,0,1-1-.23,1.94,1.94,0,0,1-.8-.67h0v3.66ZM37,103a2,2,0,0,0,0-2.66,1.64,1.64,0,0,0-1.28-.53,1.83,1.83,0,0,0-1.87,1.86,1.81,1.81,0,0,0,1.87,1.86A1.64,1.64,0,0,0,37,103Zm3.15-6.55V104h-.66V96.44ZM42,99.32l1.47,3.87,1.43-3.87h.8l-2.34,5.9a2.1,2.1,0,0,1-.57.88,1.29,1.29,0,0,1-.9.3,2,2,0,0,1-.61-.07l.07-.64a1.12,1.12,0,0,0,.5.11.69.69,0,0,0,.53-.21,1.84,1.84,0,0,0,.37-.63l.34-.9-1.92-4.74Zm10.41.72-.59.39a1.08,1.08,0,0,0-1-.63,1.25,1.25,0,0,0-.68.18.62.62,0,0,0-.08,1,1.81,1.81,0,0,0,.71.27l.67.16a1.63,1.63,0,0,1,.82.46,1.17,1.17,0,0,1,.32.82,1.23,1.23,0,0,1-.53,1.08,2.27,2.27,0,0,1-1.29.36,2,2,0,0,1-1.8-.91l.57-.39a1.39,1.39,0,0,0,1.23.7,1.47,1.47,0,0,0,.77-.2.64.64,0,0,0,.33-.58.56.56,0,0,0-.23-.48,2.05,2.05,0,0,0-.66-.27l-.64-.15q-1.2-.3-1.2-1.23a1.2,1.2,0,0,1,.5-1,2.08,2.08,0,0,1,1.23-.36A1.58,1.58,0,0,1,52.39,100Zm1.19,4V96.44h.66v3.63h0a1.59,1.59,0,0,1,.66-.62,1.76,1.76,0,0,1,.91-.25,1.72,1.72,0,0,1,1.32.48,1.91,1.91,0,0,1,.44,1.35v3h-.66v-2.59a2.14,2.14,0,0,0-.28-1.21,1.12,1.12,0,0,0-1-.4l-.21,0a1.42,1.42,0,0,0-.35.13,1.3,1.3,0,0,0-.41.28,1.37,1.37,0,0,0-.31.53,2.18,2.18,0,0,0-.14.84V104Zm8.22-2.87h.33V101a1.06,1.06,0,0,0-1.2-1.21,2.07,2.07,0,0,0-1.43.55l-.4-.47a2.65,2.65,0,0,1,2-.68,1.73,1.73,0,0,1,1.22.43,1.52,1.52,0,0,1,.49,1.23V103a7,7,0,0,0,.08,1h-.64a4.42,4.42,0,0,1-.06-.76h0a1.8,1.8,0,0,1-1.65.88,1.85,1.85,0,0,1-1.14-.36,1.21,1.21,0,0,1-.47-1,1.64,1.64,0,0,1,.13-.65,1.12,1.12,0,0,1,.38-.45,2.92,2.92,0,0,1,.52-.28,2.63,2.63,0,0,1,.63-.16l.64-.06Zm.33.54h-.34c-1.45,0-2.18.33-2.18,1a.75.75,0,0,0,.32.65,1.42,1.42,0,0,0,.78.21,1.31,1.31,0,0,0,1-.42,1.6,1.6,0,0,0,.37-1.09ZM64.39,104v-3.22c0-.07,0-.55,0-1.46H65v.87h0a1.47,1.47,0,0,1,.54-.7,1.59,1.59,0,0,1,1-.29,1.83,1.83,0,0,1,.49.06l-.13.65a1.25,1.25,0,0,0-.38,0,1.28,1.28,0,0,0-1.07.48,1.54,1.54,0,0,0-.38,1V104Zm7.43-2.16h-3.9a1.9,1.9,0,0,0,.54,1.2,1.63,1.63,0,0,0,1.18.48,1.76,1.76,0,0,0,.89-.23,1.71,1.71,0,0,0,.61-.58l.51.42a2.45,2.45,0,0,1-2,1,2.32,2.32,0,0,1-1.73-.7,2.4,2.4,0,0,1-.69-1.76,2.43,2.43,0,0,1,.68-1.75,2.27,2.27,0,0,1,1.68-.71,2.1,2.1,0,0,1,1.63.68,2.33,2.33,0,0,1,.61,1.66Zm-3.88-.54H71.1a1.45,1.45,0,0,0-.41-1.09,1.5,1.5,0,0,0-1.11-.41,1.65,1.65,0,0,0-1.14.46A1.4,1.4,0,0,0,67.94,101.3Zm8.13-2,1.47,3.87L79,99.32h.8l-2.34,5.9a2.1,2.1,0,0,1-.57.88,1.29,1.29,0,0,1-.9.3,2.09,2.09,0,0,1-.61-.07l.07-.64a1.12,1.12,0,0,0,.5.11.69.69,0,0,0,.53-.21,1.69,1.69,0,0,0,.37-.63l.34-.9-1.92-4.74Zm8.59.58a2.46,2.46,0,0,1-1.79,4.22,2.46,2.46,0,1,1,0-4.92A2.43,2.43,0,0,1,84.66,99.9ZM84.15,103a2.05,2.05,0,0,0,0-2.66,1.81,1.81,0,0,0-2.56,0,2.08,2.08,0,0,0,0,2.66,1.81,1.81,0,0,0,2.56,0Zm6.46,1h-.68a6.94,6.94,0,0,1,0-.75h0a1.68,1.68,0,0,1-.66.63,1.85,1.85,0,0,1-.91.24,1.76,1.76,0,0,1-1.32-.47,2,2,0,0,1-.44-1.36v-3h.66v2.59a2.2,2.2,0,0,0,.28,1.22,1.15,1.15,0,0,0,1,.39l.2,0a1.24,1.24,0,0,0,.36-.12,1.3,1.3,0,0,0,.4-.28,1.51,1.51,0,0,0,.32-.54,2.18,2.18,0,0,0,.14-.84v-2.4h.66V103C90.56,103.09,90.58,103.43,90.61,104Zm1.57,0v-3.22c0-.07,0-.55,0-1.46h.65v.87h0a1.6,1.6,0,0,1,.54-.7,1.59,1.59,0,0,1,1-.29,1.77,1.77,0,0,1,.49.06l-.13.65a1.2,1.2,0,0,0-.38,0,1.28,1.28,0,0,0-1.07.48,1.59,1.59,0,0,0-.38,1V104ZM99,96.44V104h-.66V96.44Zm2.41,2.88V104h-.66V99.32Zm0-2.14a.46.46,0,0,1,0,.68.49.49,0,0,1-.33.14.49.49,0,0,1-.34-.14.48.48,0,0,1,0-.68.49.49,0,0,1,.34-.14A.49.49,0,0,1,101.43,97.18ZM103,99.32h.68a6.94,6.94,0,0,1,0,.75h0a1.72,1.72,0,0,1,.66-.62,1.79,1.79,0,0,1,.91-.25,1.69,1.69,0,0,1,1.32.48A1.91,1.91,0,0,1,107,101v3h-.66v-2.59a2.06,2.06,0,0,0-.28-1.21,1.12,1.12,0,0,0-1-.4l-.21,0a1.79,1.79,0,0,0-.76.41,1.51,1.51,0,0,0-.31.53,2.38,2.38,0,0,0-.14.84V104H103v-3.65C103,100.23,103,99.89,103,99.32Zm6.27-2.88v5l2.21-2.11h1l-2.33,2.14,2.58,2.54h-1l-2.43-2.46V104h-.66V96.44Z" transform="translate(-16.5 -15)" style="fill:#072777"/><path d="M248.2,87,252,78.5h1l3.64,8.5h-1.35l-.85-2.1h-4l-.84,2.1Zm2.59-3.11H254L252.43,80h0ZM257.46,87V81.31h1.08v.88h0a1.64,1.64,0,0,1,.72-.73,2.21,2.21,0,0,1,1.15-.29,2.07,2.07,0,0,1,1.48.55,2.1,2.1,0,0,1,.59,1.62V87h-1.08V83.64a1.44,1.44,0,0,0-.38-1.1,1.24,1.24,0,0,0-.92-.36,1.49,1.49,0,0,0-1.15.48,2,2,0,0,0-.43,1.41V87Zm12.36-9.07V87h-1.08v-.82h0a2.12,2.12,0,0,1-.85.71,2.62,2.62,0,0,1-1.13.25,2.76,2.76,0,0,1-2.1-.85,3.28,3.28,0,0,1,0-4.27,2.76,2.76,0,0,1,2.1-.85,2.65,2.65,0,0,1,1.15.26,1.92,1.92,0,0,1,.83.7h0v-4.2Zm-4.31,7.65a1.93,1.93,0,0,0,2.72,0,2,2,0,0,0,.51-1.42,2,2,0,0,0-.51-1.43,2,2,0,0,0-2.72,0,2,2,0,0,0-.51,1.43A2,2,0,0,0,265.51,85.58Zm10.67-2.85a2,2,0,0,0-.5,1.43,2,2,0,0,0,.5,1.42,1.78,1.78,0,0,0,1.37.56,1.72,1.72,0,0,0,1.35-.56,2,2,0,0,0,.52-1.42,2,2,0,0,0-.52-1.43,1.71,1.71,0,0,0-1.35-.55A1.77,1.77,0,0,0,276.18,82.73Zm-.78,3.55a3,3,0,0,1,2.15-5.11,2.94,2.94,0,0,1,2.15.87,3,3,0,0,1,0,4.24,3.12,3.12,0,0,1-4.3,0Zm7,.72V82.25h-1.23v-.94h1.23V80a2.62,2.62,0,0,1,.44-1.7,1.83,1.83,0,0,1,1.5-.56,3.2,3.2,0,0,1,.8.09l-.12,1a1.62,1.62,0,0,0-.61-.11.78.78,0,0,0-.74.31,2,2,0,0,0-.18,1v1.31h1.28v.94h-1.3V87Zm3.78,0V82.25h-1.22v-.94h1.22V80a2.62,2.62,0,0,1,.45-1.7,1.83,1.83,0,0,1,1.5-.56,3.2,3.2,0,0,1,.8.09l-.12,1a1.66,1.66,0,0,0-.61-.11.81.81,0,0,0-.75.31,2,2,0,0,0-.18,1v1.31h1.29v.94h-1.3V87Zm10-5.69v.94h-1.54v2.58c0,.21,0,.38,0,.49a2.61,2.61,0,0,0,.08.38.56.56,0,0,0,.25.34,1.06,1.06,0,0,0,.47.1,1.49,1.49,0,0,0,.77-.17v1a2,2,0,0,1-1,.19,2.24,2.24,0,0,1-.82-.13,1.53,1.53,0,0,1-.5-.27,1.19,1.19,0,0,1-.27-.46,3.16,3.16,0,0,1-.09-.5c0-.14,0-.33,0-.57v-3h-1.25v-.94h1.25V79.72h1.08v1.59Zm1.4,5.69V77.93h1.08v4.26h0a1.64,1.64,0,0,1,.72-.73,2.21,2.21,0,0,1,1.15-.29,2.06,2.06,0,0,1,1.48.55,2.1,2.1,0,0,1,.59,1.62V87h-1.08V83.64a1.47,1.47,0,0,0-.37-1.1,1.26,1.26,0,0,0-.93-.36,1.5,1.5,0,0,0-1.15.48,2,2,0,0,0-.43,1.41V87Zm12-2.45H305a1.47,1.47,0,0,0,.57,1.19,2.07,2.07,0,0,0,1.35.47,2,2,0,0,0,1.56-.85l.82.62a3,3,0,0,1-2.52,1.16,2.82,2.82,0,0,1-2.13-.84,3,3,0,0,1-.8-2.14,3,3,0,0,1,.83-2.14,2.83,2.83,0,0,1,2.11-.85,2.45,2.45,0,0,1,2.08.89,3.28,3.28,0,0,1,.69,2.11ZM305,83.69h3.41a1.79,1.79,0,0,0-.44-1.2,1.53,1.53,0,0,0-1.2-.46,1.66,1.66,0,0,0-1.26.53A1.57,1.57,0,0,0,305,83.69ZM312.5,87l-2.36-5.73h1.25l1.69,4.44h0l1.61-4.44h1.17l-2.7,6.91a3.6,3.6,0,0,1-.74,1.26,1.61,1.61,0,0,1-1.21.4,2.47,2.47,0,0,1-1-.16l.13-1a1.71,1.71,0,0,0,.65.13.9.9,0,0,0,.69-.23,2,2,0,0,0,.42-.7Zm13.36-5.73V87a2.74,2.74,0,0,1-.86,2.11,3.09,3.09,0,0,1-2.24.82,4,4,0,0,1-2.79-1l.73-.91a2.73,2.73,0,0,0,2,.92,1.94,1.94,0,0,0,1.57-.56,2.11,2.11,0,0,0,.48-1.41v-.84h0a2,2,0,0,1-.83.76,2.57,2.57,0,0,1-1.14.25,2.81,2.81,0,0,1-2.89-2.91,3,3,0,0,1,.79-2.14,2.76,2.76,0,0,1,2.1-.85,2.63,2.63,0,0,1,1.13.26,2.1,2.1,0,0,1,.85.7h0v-.82Zm-1.59,1.42a1.75,1.75,0,0,0-1.36-.55,1.79,1.79,0,0,0-1.37.55,2.06,2.06,0,0,0-.5,1.43,2,2,0,0,0,.5,1.39,2.1,2.1,0,0,0,2.74,0,1.91,1.91,0,0,0,.5-1.39A2,2,0,0,0,324.27,82.73Zm4.61,0a2,2,0,0,0-.5,1.43,2,2,0,0,0,.5,1.42,1.78,1.78,0,0,0,1.37.56,1.72,1.72,0,0,0,1.35-.56,2,2,0,0,0,.52-1.42,2,2,0,0,0-.52-1.43,1.71,1.71,0,0,0-1.35-.55A1.77,1.77,0,0,0,328.88,82.73Zm-.78,3.55a3,3,0,0,1,2.15-5.11,2.94,2.94,0,0,1,2.15.87,3,3,0,0,1,0,4.24,3.12,3.12,0,0,1-4.3,0Z" transform="translate(-16.5 -15)" style="fill:#072777"/><path d="M253.6,96.58V103h-.72V96.58h-2.37v-.66H256v.66Zm3.23,6.42V95.44h.66v3.63h0a1.72,1.72,0,0,1,.66-.62,1.79,1.79,0,0,1,.91-.25,1.69,1.69,0,0,1,1.32.48,1.91,1.91,0,0,1,.44,1.35v3h-.66v-2.59a2.06,2.06,0,0,0-.28-1.21,1.12,1.12,0,0,0-1-.4l-.21,0a1.79,1.79,0,0,0-.76.41,1.51,1.51,0,0,0-.31.53,2.38,2.38,0,0,0-.14.84V103Zm9.92-2.16h-3.9a1.9,1.9,0,0,0,.54,1.2,1.61,1.61,0,0,0,1.18.48,1.82,1.82,0,0,0,.89-.23,1.79,1.79,0,0,0,.61-.58l.51.42a2.45,2.45,0,0,1-2,1,2.31,2.31,0,0,1-1.73-.7,2.59,2.59,0,0,1,0-3.51,2.24,2.24,0,0,1,1.68-.71,2.12,2.12,0,0,1,1.63.68,2.38,2.38,0,0,1,.61,1.66Zm-3.88-.54H266a1.49,1.49,0,0,0-.41-1.09,1.53,1.53,0,0,0-1.11-.41,1.61,1.61,0,0,0-1.14.46A1.36,1.36,0,0,0,262.87,100.3Zm5.34-2,1.47,3.87,1.43-3.87h.8l-2.34,5.9a2.1,2.1,0,0,1-.57.88,1.29,1.29,0,0,1-.9.3,2.09,2.09,0,0,1-.61-.07l.07-.64a1.12,1.12,0,0,0,.5.11.69.69,0,0,0,.53-.21A1.69,1.69,0,0,0,269,104l.34-.9-1.92-4.74Zm7.21,6.14.49-.52a2.06,2.06,0,0,0,.77.63,2.31,2.31,0,0,0,1,.23,1.72,1.72,0,0,0,1.38-.51,2,2,0,0,0,.44-1.33v-.84h0a2,2,0,0,1-1.75.88,2.42,2.42,0,0,1-1.73-.68,2.26,2.26,0,0,1-.71-1.7A2.35,2.35,0,0,1,276,98.9a2.26,2.26,0,0,1,1.71-.7,2.14,2.14,0,0,1,1.81.9h0v-.78h.66V103a3.42,3.42,0,0,1-.06.65,2.12,2.12,0,0,1-.22.64,1.82,1.82,0,0,1-.44.58,1.94,1.94,0,0,1-.73.41,3.15,3.15,0,0,1-1.06.16A2.94,2.94,0,0,1,275.42,104.46Zm1.11-5.13a1.86,1.86,0,0,0,0,2.54,1.66,1.66,0,0,0,1.24.53,1.78,1.78,0,0,0,1.27-.5,1.64,1.64,0,0,0,.5-1.3,1.78,1.78,0,0,0-.49-1.28,1.77,1.77,0,0,0-2.52,0Zm9.49,1.51h-3.9a1.9,1.9,0,0,0,.54,1.2,1.63,1.63,0,0,0,1.18.48,1.76,1.76,0,0,0,.89-.23,1.71,1.71,0,0,0,.61-.58l.51.42a2.45,2.45,0,0,1-2,1,2.32,2.32,0,0,1-1.73-.7,2.4,2.4,0,0,1-.69-1.76,2.43,2.43,0,0,1,.68-1.75,2.27,2.27,0,0,1,1.68-.71,2.1,2.1,0,0,1,1.63.68,2.33,2.33,0,0,1,.61,1.66Zm-3.88-.54h3.16a1.45,1.45,0,0,0-.41-1.09,1.5,1.5,0,0,0-1.11-.41,1.65,1.65,0,0,0-1.14.46A1.4,1.4,0,0,0,282.14,100.3Zm7.5-2v.6h-1.35v2.76a1,1,0,0,0,.17.67.7.7,0,0,0,.51.17,1.41,1.41,0,0,0,.68-.18l0,.61a2.17,2.17,0,0,1-.89.17,1.26,1.26,0,0,1-.82-.28,1.19,1.19,0,0,1-.34-1v-3h-1v-.6h1V97h.66v1.32ZM294,95.44v5l2.21-2.11h1l-2.33,2.14,2.58,2.54h-1L294,100.54V103h-.66V95.44Zm6.84,4.69h.33V100A1.06,1.06,0,0,0,300,98.8a2,2,0,0,0-1.43.55l-.4-.47a2.65,2.65,0,0,1,2-.68,1.75,1.75,0,0,1,1.22.43,1.55,1.55,0,0,1,.49,1.23V102a5.89,5.89,0,0,0,.08,1h-.64a4.42,4.42,0,0,1-.06-.76h0a2,2,0,0,1-2.79.52,1.19,1.19,0,0,1-.47-1,1.48,1.48,0,0,1,.13-.65,1,1,0,0,1,.38-.45,2.54,2.54,0,0,1,1.15-.44l.64-.06Zm.33.54h-.34c-1.46,0-2.18.33-2.18,1a.72.72,0,0,0,.32.65,1.42,1.42,0,0,0,.78.21,1.31,1.31,0,0,0,1-.42,1.65,1.65,0,0,0,.37-1.09Zm2.45-2.35,1.47,3.87,1.43-3.87h.8l-2.34,5.9a2.1,2.1,0,0,1-.57.88,1.29,1.29,0,0,1-.9.3,2.09,2.09,0,0,1-.61-.07l.07-.64a1.12,1.12,0,0,0,.5.11.69.69,0,0,0,.53-.21,1.69,1.69,0,0,0,.37-.63l.34-.9-1.92-4.74Zm4.51,0h.68a6.94,6.94,0,0,1,0,.75h0a1.59,1.59,0,0,1,.66-.62,1.76,1.76,0,0,1,.91-.25,1.72,1.72,0,0,1,1.32.48,1.91,1.91,0,0,1,.44,1.35v3h-.66v-2.59a2.14,2.14,0,0,0-.28-1.21,1.12,1.12,0,0,0-1-.4l-.21,0a1.42,1.42,0,0,0-.35.13,1.3,1.3,0,0,0-.41.28,1.37,1.37,0,0,0-.31.53,2.18,2.18,0,0,0-.14.84V103h-.66V99.35C308.16,99.23,308.14,98.89,308.11,98.32Zm10.27-2.88V103h-.66v-.78h0a1.91,1.91,0,0,1-.81.67,2.46,2.46,0,1,1,0-4.46,1.91,1.91,0,0,1,.81.67h0V95.44Zm-3.79,3.89a2.08,2.08,0,0,0,0,2.66,1.7,1.7,0,0,0,1.29.53,1.82,1.82,0,0,0,1.34-.53,1.79,1.79,0,0,0,.53-1.33,1.76,1.76,0,0,0-.53-1.32,1.79,1.79,0,0,0-1.34-.54A1.7,1.7,0,0,0,314.59,99.33ZM319.9,103V99.78c0-.07,0-.55,0-1.46h.65v.87h0a1.47,1.47,0,0,1,.54-.7,1.59,1.59,0,0,1,1-.29,1.83,1.83,0,0,1,.49.06l-.13.65a1.25,1.25,0,0,0-.38,0,1.28,1.28,0,0,0-1.07.48,1.54,1.54,0,0,0-.38,1V103Zm7.43-2.16h-3.9A1.9,1.9,0,0,0,324,102a1.63,1.63,0,0,0,1.18.48,1.79,1.79,0,0,0,.89-.23,1.71,1.71,0,0,0,.61-.58l.51.42a2.45,2.45,0,0,1-2,1,2.32,2.32,0,0,1-1.73-.7,2.4,2.4,0,0,1-.69-1.76,2.43,2.43,0,0,1,.68-1.75,2.24,2.24,0,0,1,1.68-.71,2.1,2.1,0,0,1,1.63.68,2.33,2.33,0,0,1,.61,1.66Zm-3.88-.54h3.16a1.45,1.45,0,0,0-.41-1.09,1.5,1.5,0,0,0-1.11-.41,1.65,1.65,0,0,0-1.14.46A1.4,1.4,0,0,0,323.45,100.3Zm4.36,2.7,1.93-2.5L328,98.32h.9l1.3,1.75,1.24-1.75h.82l-1.63,2.18,2,2.5h-.9l-1.57-2-1.51,2Z" transform="translate(-16.5 -15)" style="fill:#072777"/><path d="M123.1,176v-3.62l-3.22-4.88h1.48l2.31,3.74,2.39-3.74h1.4l-3.21,4.88V176Zm5.11-4.27a2,2,0,0,0-.51,1.43,2,2,0,0,0,.51,1.42,1.78,1.78,0,0,0,1.37.56,1.73,1.73,0,0,0,1.35-.56,2,2,0,0,0,.52-1.42,2,2,0,0,0-.52-1.43,1.73,1.73,0,0,0-1.35-.55A1.77,1.77,0,0,0,128.21,171.73Zm-.78,3.55a3,3,0,0,1,0-4.24,3.08,3.08,0,0,1,4.29,0,3,3,0,0,1,0,4.24,3.11,3.11,0,0,1-4.29,0Zm11.56-5V176h-1.08v-.88h0a1.68,1.68,0,0,1-.72.75,2.41,2.41,0,0,1-1.15.27A2,2,0,0,1,134,174v-3.66H135v3.36a1.52,1.52,0,0,0,.36,1.12,1.33,1.33,0,0,0,.94.35,1.49,1.49,0,0,0,1.14-.47,2.07,2.07,0,0,0,.44-1.43v-2.93Zm10.35,3.24h-4.56a1.46,1.46,0,0,0,.56,1.19,2.12,2.12,0,0,0,1.36.47,2,2,0,0,0,1.56-.85l.81.62a3,3,0,0,1-2.52,1.16,2.79,2.79,0,0,1-2.12-.84,3.23,3.23,0,0,1,0-4.28,2.85,2.85,0,0,1,2.12-.85,2.44,2.44,0,0,1,2.07.89,3.29,3.29,0,0,1,.7,2.11Zm-4.56-.86h3.4a1.74,1.74,0,0,0-.44-1.2,1.5,1.5,0,0,0-1.2-.46,1.69,1.69,0,0,0-1.26.53A1.6,1.6,0,0,0,144.78,172.69Zm6.52-1-.65-.67a3.16,3.16,0,0,1,2.26-.84,2.49,2.49,0,0,1,1.77.55,1.71,1.71,0,0,1,.61,1.34V175a9.66,9.66,0,0,0,0,1h-1c0-.29,0-.58,0-.86h0a2.45,2.45,0,0,1-3.39.55,1.52,1.52,0,0,1-.57-1.25,1.59,1.59,0,0,1,.86-1.5,4.78,4.78,0,0,1,2.28-.47h.79v-.24a1.15,1.15,0,0,0-.36-.84,1.35,1.35,0,0,0-1-.36,2.19,2.19,0,0,0-.73.12,1.85,1.85,0,0,0-.46.21Zm3,1.58h-.58c-1.51,0-2.27.37-2.27,1.1s.41.92,1.23.92a1.46,1.46,0,0,0,1.22-.49,1.79,1.79,0,0,0,.4-1.17Zm2.57,2.74v-5.69h1.08v.88h0a1.59,1.59,0,0,1,.68-.73,1.88,1.88,0,0,1,1-.29,1.47,1.47,0,0,1,.48.07l0,1.16a2.35,2.35,0,0,0-.53-.08c-1.08,0-1.63.61-1.63,1.82V176Zm4.44,0v-5.69h1.08v.88h0a1.54,1.54,0,0,1,.72-.73,2.19,2.19,0,0,1,1.15-.29,2,2,0,0,1,2.06,2.17V176h-1.08v-3.36a1.43,1.43,0,0,0-.37-1.1,1.25,1.25,0,0,0-.92-.36,1.52,1.52,0,0,0-1.16.48,2,2,0,0,0-.43,1.41V176Zm10,0v-9.07h1.08v5.85l2.45-2.46h1.5l-2.65,2.58,2.88,3.1H175l-2.64-2.95V176Zm6.9-4.32-.65-.67a3.14,3.14,0,0,1,2.25-.84,2.5,2.5,0,0,1,1.78.55,1.73,1.73,0,0,1,.6,1.34V175a9.28,9.28,0,0,0,0,1h-1a8.38,8.38,0,0,1,0-.86h0a2.46,2.46,0,0,1-3.4.55,1.51,1.51,0,0,1-.56-1.25,1.58,1.58,0,0,1,.85-1.5,4.8,4.8,0,0,1,2.28-.47h.79v-.24a1.15,1.15,0,0,0-.36-.84,1.31,1.31,0,0,0-1-.36,2.3,2.3,0,0,0-.74.12,1.93,1.93,0,0,0-.45.21C178.55,171.41,178.4,171.52,178.2,171.68Zm3,1.58h-.57c-1.52,0-2.27.37-2.27,1.1s.41.92,1.22.92a1.46,1.46,0,0,0,1.22-.49,1.79,1.79,0,0,0,.4-1.17Zm4.26,2.78-2.37-5.73h1.25l1.69,4.44h0l1.6-4.44h1.17l-2.7,6.91a3.76,3.76,0,0,1-.73,1.26,1.65,1.65,0,0,1-1.22.4,2.47,2.47,0,0,1-1-.16l.14-1a1.63,1.63,0,0,0,.64.13.89.89,0,0,0,.69-.23,2,2,0,0,0,.42-.7Zm4.32,0v-5.69h1.08v.88h0a1.54,1.54,0,0,1,.72-.73,2.21,2.21,0,0,1,1.15-.29,2.07,2.07,0,0,1,1.48.55,2.1,2.1,0,0,1,.59,1.62V176h-1.08v-3.36a1.44,1.44,0,0,0-.38-1.1,1.24,1.24,0,0,0-.92-.36,1.49,1.49,0,0,0-1.15.48,2,2,0,0,0-.43,1.41V176Zm12.36-9.07V176H201v-.82h0a2.12,2.12,0,0,1-.85.71,2.62,2.62,0,0,1-1.13.25,2.76,2.76,0,0,1-2.1-.85,3.28,3.28,0,0,1,0-4.27,2.76,2.76,0,0,1,2.1-.85,2.65,2.65,0,0,1,1.15.26,1.92,1.92,0,0,1,.83.7h0v-4.2Zm-4.32,7.65a1.79,1.79,0,0,0,1.37.56,1.76,1.76,0,0,0,1.36-.56,2,2,0,0,0,.51-1.42,2,2,0,0,0-.51-1.43,1.75,1.75,0,0,0-1.36-.55,1.79,1.79,0,0,0-1.37.55,2.06,2.06,0,0,0-.5,1.43A2,2,0,0,0,197.79,174.58Zm6,1.42v-5.69h1.08v.88h0a1.67,1.67,0,0,1,.69-.73,1.88,1.88,0,0,1,1-.29,1.51,1.51,0,0,1,.48.07l0,1.16a2.35,2.35,0,0,0-.53-.08c-1.09,0-1.63.61-1.63,1.82V176Zm9.61-2.45H208.8a1.46,1.46,0,0,0,.56,1.19,2.1,2.1,0,0,0,1.36.47,2,2,0,0,0,1.56-.85l.81.62a3,3,0,0,1-2.52,1.16,2.79,2.79,0,0,1-2.12-.84,3.2,3.2,0,0,1,0-4.28,2.84,2.84,0,0,1,2.11-.85,2.45,2.45,0,0,1,2.08.89,3.29,3.29,0,0,1,.7,2.11Zm-4.56-.86h3.4a1.74,1.74,0,0,0-.44-1.2,1.5,1.5,0,0,0-1.2-.46,1.69,1.69,0,0,0-1.26.53A1.56,1.56,0,0,0,208.8,172.69Zm5.1,3.31,2.31-3-2-2.65h1.39l1.38,2,1.36-2h1.31L217.68,173l2.31,3H218.6l-1.68-2.39L215.24,176Z" transform="translate(-16.5 -15)" style="fill:#072777"/><path d="M126.23,189V192h-.72V189l-2.65-4h.9l2.11,3.34,2.11-3.34h.9Zm6.34-1a2.46,2.46,0,0,1-1.79,4.22,2.46,2.46,0,1,1,1.79-4.22Zm-.51,3.09a2.05,2.05,0,0,0,0-2.66,1.64,1.64,0,0,0-1.28-.53,1.69,1.69,0,0,0-1.28.53,2.08,2.08,0,0,0,0,2.66,1.69,1.69,0,0,0,1.28.53A1.64,1.64,0,0,0,132.06,191Zm6.47,1h-.68a6.94,6.94,0,0,1,0-.75h0a1.82,1.82,0,0,1-.66.63,1.88,1.88,0,0,1-.91.24,1.74,1.74,0,0,1-1.32-.47,2,2,0,0,1-.44-1.36v-3h.66v2.59a2.12,2.12,0,0,0,.28,1.22,1.15,1.15,0,0,0,1,.39l.2,0a1.24,1.24,0,0,0,.36-.12,1.44,1.44,0,0,0,.4-.28,1.51,1.51,0,0,0,.32-.54,2.18,2.18,0,0,0,.14-.84v-2.4h.66V191C138.48,191.09,138.5,191.43,138.53,192Zm1.57,0v-3.22c0-.07,0-.55,0-1.46h.65v.87h0a1.47,1.47,0,0,1,.54-.7,1.59,1.59,0,0,1,1-.29,1.77,1.77,0,0,1,.49.06l-.13.65a1.2,1.2,0,0,0-.38,0,1.28,1.28,0,0,0-1.07.48,1.59,1.59,0,0,0-.38,1V192Zm6.84-4.68V192h-.66v-4.68Zm0-2.14a.46.46,0,0,1,0,.68.45.45,0,0,1-.33.14.51.51,0,0,1-.34-.14.48.48,0,0,1,0-.68.51.51,0,0,1,.34-.14A.45.45,0,0,1,146.94,185.18Zm1.54,2.14h.68a6.94,6.94,0,0,1,0,.75h0a1.72,1.72,0,0,1,.66-.62,1.81,1.81,0,0,1,.91-.25,1.69,1.69,0,0,1,1.32.48,1.86,1.86,0,0,1,.44,1.35v3h-.66v-2.59a2.06,2.06,0,0,0-.28-1.21,1.1,1.1,0,0,0-1-.4l-.21,0a1.58,1.58,0,0,0-.35.13,1.42,1.42,0,0,0-.41.28,1.68,1.68,0,0,0-.31.53,2.38,2.38,0,0,0-.14.84V192h-.66v-3.65C148.53,188.23,148.52,187.89,148.48,187.32Zm9.57,0-1.9,4.68h-.74l-1.9-4.68h.79l1.49,3.94h0l1.49-3.94Zm5.22,2.52h-3.89a1.89,1.89,0,0,0,.53,1.2,1.64,1.64,0,0,0,1.19.48,1.82,1.82,0,0,0,.89-.23,1.79,1.79,0,0,0,.61-.58l.5.42a2.43,2.43,0,0,1-2,1,2.29,2.29,0,0,1-1.73-.7,2.37,2.37,0,0,1-.69-1.76,2.42,2.42,0,0,1,.67-1.75,2.27,2.27,0,0,1,1.69-.71,2.1,2.1,0,0,1,1.62.68,2.33,2.33,0,0,1,.61,1.66Zm-3.87-.54h3.15a1.48,1.48,0,0,0-.4-1.09,1.53,1.53,0,0,0-1.11-.41,1.61,1.61,0,0,0-1.14.46A1.36,1.36,0,0,0,159.4,189.3Zm8.14-1.26-.59.39a1.07,1.07,0,0,0-1-.63,1.28,1.28,0,0,0-.68.18.57.57,0,0,0-.29.52.55.55,0,0,0,.21.47,2,2,0,0,0,.71.27l.67.16a1.55,1.55,0,0,1,.82.46,1.13,1.13,0,0,1,.32.82,1.23,1.23,0,0,1-.53,1.08,2.23,2.23,0,0,1-1.29.36,2,2,0,0,1-1.8-.91l.57-.39a1.39,1.39,0,0,0,1.23.7,1.45,1.45,0,0,0,.77-.2.64.64,0,0,0,.33-.58.56.56,0,0,0-.23-.48,1.87,1.87,0,0,0-.66-.27l-.64-.15q-1.2-.3-1.2-1.23a1.22,1.22,0,0,1,.5-1.05,2.08,2.08,0,0,1,1.23-.36A1.56,1.56,0,0,1,167.54,188Zm3.61-.72v.6H169.8v2.76a1,1,0,0,0,.17.67.7.7,0,0,0,.51.17,1.41,1.41,0,0,0,.68-.18l0,.61a2.17,2.17,0,0,1-.89.17,1.26,1.26,0,0,1-.82-.28,1.19,1.19,0,0,1-.34-1v-3h-1v-.6h1V186h.66v1.32Zm.9,4.68v-3.64c0-.11,0-.45-.05-1h.71V188h0a1.6,1.6,0,0,1,.65-.61,1.8,1.8,0,0,1,.86-.22,1.45,1.45,0,0,1,1.49,1,1.52,1.52,0,0,1,.63-.7,1.88,1.88,0,0,1,2.23.21A1.91,1.91,0,0,1,179,189v3h-.66v-2.73a1.93,1.93,0,0,0-.26-1.11,1.06,1.06,0,0,0-.92-.36,1.1,1.1,0,0,0-1,.49,2.21,2.21,0,0,0-.32,1.22V192h-.66v-2.73a1.93,1.93,0,0,0-.26-1.11,1.06,1.06,0,0,0-.92-.36l-.21,0a1.32,1.32,0,0,0-.32.13,1.29,1.29,0,0,0-.38.28,1.51,1.51,0,0,0-.29.53,2.66,2.66,0,0,0-.12.84V192Zm12.88-2.16H181a1.9,1.9,0,0,0,.54,1.2,1.61,1.61,0,0,0,1.18.48,1.82,1.82,0,0,0,.89-.23,1.79,1.79,0,0,0,.61-.58l.51.42a2.45,2.45,0,0,1-2,1,2.31,2.31,0,0,1-1.73-.7,2.59,2.59,0,0,1,0-3.51,2.24,2.24,0,0,1,1.68-.71,2.12,2.12,0,0,1,1.63.68,2.38,2.38,0,0,1,.61,1.66Zm-3.88-.54h3.16a1.49,1.49,0,0,0-.41-1.09,1.53,1.53,0,0,0-1.11-.41,1.61,1.61,0,0,0-1.14.46A1.36,1.36,0,0,0,181.05,189.3Zm5-2h.68a6.94,6.94,0,0,1,0,.75h0a1.72,1.72,0,0,1,.66-.62,1.81,1.81,0,0,1,.91-.25,1.69,1.69,0,0,1,1.32.48,1.86,1.86,0,0,1,.44,1.35v3h-.66v-2.59a2.06,2.06,0,0,0-.28-1.21,1.1,1.1,0,0,0-1-.4l-.21,0a1.58,1.58,0,0,0-.35.13,1.42,1.42,0,0,0-.41.28,1.68,1.68,0,0,0-.31.53,2.38,2.38,0,0,0-.14.84V192h-.66v-3.65C186.12,188.23,186.11,187.89,186.07,187.32Zm8,0v.6h-1.35v2.76a1,1,0,0,0,.17.67.7.7,0,0,0,.51.17,1.41,1.41,0,0,0,.68-.18l0,.61a2.17,2.17,0,0,1-.89.17,1.26,1.26,0,0,1-.82-.28,1.19,1.19,0,0,1-.34-1v-3h-1v-.6h1V186h.66v1.32Zm3.55,6.14.49-.52a2.06,2.06,0,0,0,.77.63,2.38,2.38,0,0,0,1,.23,1.69,1.69,0,0,0,1.38-.51,1.91,1.91,0,0,0,.44-1.33v-.84h0A2,2,0,0,1,200,192a2.43,2.43,0,0,1-1.73-.68,2.26,2.26,0,0,1-.71-1.7,2.39,2.39,0,0,1,.67-1.72,2.29,2.29,0,0,1,1.71-.7,2.13,2.13,0,0,1,1.81.9h0v-.78h.66V192a3.42,3.42,0,0,1-.06.65,1.88,1.88,0,0,1-.22.64,1.82,1.82,0,0,1-.44.58,1.87,1.87,0,0,1-.73.41,3.11,3.11,0,0,1-1.06.16A2.94,2.94,0,0,1,197.65,193.46Zm1.11-5.13a1.86,1.86,0,0,0,0,2.54,1.68,1.68,0,0,0,1.24.53,1.77,1.77,0,0,0,1.27-.5,1.61,1.61,0,0,0,.5-1.3,1.78,1.78,0,0,0-.49-1.28,1.64,1.64,0,0,0-1.28-.52A1.68,1.68,0,0,0,198.76,188.33Zm7.81.8h.33V189a1.06,1.06,0,0,0-1.2-1.21,2,2,0,0,0-1.43.55l-.4-.47a2.65,2.65,0,0,1,2-.68,1.75,1.75,0,0,1,1.22.43,1.55,1.55,0,0,1,.49,1.23V191a5.89,5.89,0,0,0,.08,1.05H207a4.42,4.42,0,0,1-.06-.76h0a2,2,0,0,1-2.79.52,1.19,1.19,0,0,1-.47-1,1.48,1.48,0,0,1,.13-.65,1,1,0,0,1,.38-.45,2.54,2.54,0,0,1,1.15-.44l.64-.06Zm.33.54h-.34c-1.46,0-2.18.33-2.18,1a.72.72,0,0,0,.32.65,1.42,1.42,0,0,0,.78.21,1.31,1.31,0,0,0,1.05-.42,1.65,1.65,0,0,0,.37-1.09Zm3-2.35V192h-.66v-4.68Zm0-2.14a.46.46,0,0,1,0,.68.45.45,0,0,1-.33.14.49.49,0,0,1-.34-.14.48.48,0,0,1,0-.68.49.49,0,0,1,.34-.14A.45.45,0,0,1,209.89,185.18Zm1.54,2.14h.68a6.94,6.94,0,0,1,0,.75h0a1.72,1.72,0,0,1,.66-.62,1.81,1.81,0,0,1,.91-.25,1.69,1.69,0,0,1,1.32.48,1.86,1.86,0,0,1,.44,1.35v3h-.66v-2.59a2.06,2.06,0,0,0-.28-1.21,1.1,1.1,0,0,0-1-.4l-.21,0a1.58,1.58,0,0,0-.35.13,1.42,1.42,0,0,0-.41.28,1.68,1.68,0,0,0-.31.53,2.38,2.38,0,0,0-.14.84V192h-.66v-3.65C211.48,188.23,211.47,187.89,211.43,187.32Zm8.68.72-.59.39a1.08,1.08,0,0,0-1-.63,1.25,1.25,0,0,0-.68.18.57.57,0,0,0-.29.52.55.55,0,0,0,.21.47,1.87,1.87,0,0,0,.71.27l.67.16a1.59,1.59,0,0,1,.82.46,1.17,1.17,0,0,1,.32.82,1.23,1.23,0,0,1-.53,1.08,2.23,2.23,0,0,1-1.29.36,2,2,0,0,1-1.8-.91l.57-.39a1.39,1.39,0,0,0,1.23.7,1.45,1.45,0,0,0,.77-.2.64.64,0,0,0,.33-.58.56.56,0,0,0-.23-.48,1.87,1.87,0,0,0-.66-.27l-.64-.15q-1.2-.3-1.2-1.23a1.22,1.22,0,0,1,.5-1.05,2.08,2.08,0,0,1,1.23-.36A1.56,1.56,0,0,1,220.11,188Z" transform="translate(-16.5 -15)" style="fill:#072777"/><circle cx="155.5" cy="119" r="27" style="fill:#cdd4e4"/><path d="M189.5,135.07c0,8.88-8.39,16.08-18.75,16.08S152,144,152,135.07,160.4,119,170.75,119,189.5,126.2,189.5,135.07Z" transform="translate(-16.5 -15)" style="fill:#1dd1a1"/><path d="M162.19,135.07a16.11,16.11,0,0,1,11.24-15.27,16.44,16.44,0,0,0-5.09-.8,16.08,16.08,0,1,0,0,32.15,16.74,16.74,0,0,0,5.09-.8A16.11,16.11,0,0,1,162.19,135.07Z" transform="translate(-16.5 -15)" style="fill:#15ba8b"/><path d="M163.94,139.55l-5.73-5.86a3,3,0,0,1,0-4.23,2.89,2.89,0,0,1,4.13,0l3.66,3.75,21.5-20.71c1.14-1.17,3.73-1.15,4.5,0a3.15,3.15,0,0,1,0,4l-23.93,23.05A2.87,2.87,0,0,1,163.94,139.55Z" transform="translate(-16.5 -15)" style="fill:#e4eaf8"/><circle cx="48.5" cy="28" r="27" style="fill:#93aeeb"/><circle cx="274.5" cy="27" r="27" style="fill:#ffd7aa"/><path d="M71.47,27H56.53A1.56,1.56,0,0,0,55,28.58V59.42A1.56,1.56,0,0,0,56.53,61H71.47A1.56,1.56,0,0,0,73,59.42V28.58A1.56,1.56,0,0,0,71.47,27Z" transform="translate(-16.5 -15)" style="fill:#576574"/><path d="M57.27,59.42V28.58A1.67,1.67,0,0,1,59,27H56.73A1.67,1.67,0,0,0,55,28.58V59.42A1.67,1.67,0,0,0,56.73,61H59A1.67,1.67,0,0,1,57.27,59.42Z" transform="translate(-16.5 -15)" style="fill:#3e4b5a"/><path d="M57,33V54.46a.55.55,0,0,0,.56.54H71.44a.55.55,0,0,0,.56-.54V33Z" transform="translate(-16.5 -15)" style="fill:#e4eaf8"/><path d="M59.37,54.46V33H57V54.46a.59.59,0,0,0,.63.54H60a.59.59,0,0,1-.63-.54Z" transform="translate(-16.5 -15)" style="fill:#c7d2e5"/><path d="M66,58c0,.55-.67,1-1.5,1S63,58.55,63,58s.67-1,1.5-1,1.5.45,1.5,1Z" transform="translate(-16.5 -15)" style="fill:#3e4b5a"/><path d="M64.64,58a.94.94,0,0,1,.36-.72,1.31,1.31,0,0,0-.82-.28,1,1,0,1,0,0,2,1.31,1.31,0,0,0,.82-.28.94.94,0,0,1-.36-.72Z" transform="translate(-16.5 -15)" style="fill:#374451"/><path d="M65.54,30H62.46c-.25,0-.46-.45-.46-1s.2-1,.46-1h3.08c.25,0,.46.45.46,1S65.79,30,65.54,30Z" transform="translate(-16.5 -15)" style="fill:#3e4b5a"/><path d="M71.66,31H57.34a.32.32,0,0,0-.34.28V33H72V31.28A.32.32,0,0,0,71.66,31Z" transform="translate(-16.5 -15)" style="fill:#54a0ff"/><path d="M60,31H57.4c-.22,0-.4.13-.4.28V33h3Z" transform="translate(-16.5 -15)" style="fill:#ff6b6b"/><path d="M60,31H57.42c-.23,0-.42.13-.42.28V33h2.58V31.28C59.58,31.13,59.77,31,60,31Z" transform="translate(-16.5 -15)" style="fill:#ee5253"/><path d="M93.26,60,91.8,58.5c-1.86-1.86.15-3.53-2.16-5.83l-5.41-5.41-2-2a1.81,1.81,0,0,0-2.56,2.56l-.26-.26a1.81,1.81,0,0,0-2.56,2.56l-.35-.34a1.8,1.8,0,0,0-2.56,0,1.83,1.83,0,0,0-.06,2.54l-7.79-7.79a1.81,1.81,0,0,0-2.56,2.56L75.31,58.86a.39.39,0,0,1-.33.67l-4.48-.6a1.85,1.85,0,0,0-1.16,3.5l8.31,3.25a7.52,7.52,0,0,0,2.26.41h1.63A3.92,3.92,0,0,1,84,67.56c.83.83,1.87,2.24,3.25.86l6.22-6.21A1.55,1.55,0,0,0,93.26,60Z" transform="translate(-16.5 -15)" style="fill:#ffcdbf"/><path d="M85.6,66.29h0a4,4,0,0,0-2.5-1.48H81.49a7.59,7.59,0,0,1-2.26-.4L71,61.17a1.79,1.79,0,0,1-1.1-2.23,1.82,1.82,0,0,0-.44,3.51l8.28,3.24a7.25,7.25,0,0,0,2.26.4h1.61a3.94,3.94,0,0,1,2.5,1.47h0c.83.83,1.86,2.24,3.23.86l.76-.75c-1,.31-1.79-.72-2.45-1.38Z" transform="translate(-16.5 -15)" style="fill:#ffbeab"/><path d="M80.6,52.82a.77.77,0,0,0,0-1.07l-3.9-3.9a1.81,1.81,0,0,0,.18,2.32l2.65,2.65a.77.77,0,0,0,1.07,0Z" transform="translate(-16.5 -15)" style="fill:#ffbeab"/><path d="M78,54.33l-4.24-4.25a1.82,1.82,0,0,0,.15,2.28l3,3A.75.75,0,0,0,78,54.33Z" transform="translate(-16.5 -15)" style="fill:#ffbeab"/><path d="M83.15,50.26a.75.75,0,0,0,0-1.06l-3.64-3.64a1.81,1.81,0,0,0,.19,2.32l2.38,2.38A.75.75,0,0,0,83.15,50.26Z" transform="translate(-16.5 -15)" style="fill:#ffbeab"/><path d="M72.08,52.84l-7.6-7.56A1.26,1.26,0,0,1,64.16,44a1.24,1.24,0,0,0-.78.37,1.27,1.27,0,0,0,0,1.81l8.38,8.34a.28.28,0,0,1-.23.47s1,.1,1.37-.44-.17-1.07-.82-1.71Z" transform="translate(-16.5 -15)" style="fill:#ffbeab"/><path d="M302.06,26H280.23A2.26,2.26,0,0,0,278,28.28V72.72A2.27,2.27,0,0,0,280.23,75h21.83a2.26,2.26,0,0,0,2.23-2.28V28.28A2.26,2.26,0,0,0,302.06,26Z" transform="translate(-16.5 -15)" style="fill:#576574"/><path d="M281.39,72.72V28.28A2.46,2.46,0,0,1,284,26h-3.39A2.46,2.46,0,0,0,278,28.28V72.72A2.46,2.46,0,0,0,280.59,75H284A2.46,2.46,0,0,1,281.39,72.72Z" transform="translate(-16.5 -15)" style="fill:#3e4b5a"/><path d="M280.39,34.37V65.84a.82.82,0,0,0,.85.79h21a.82.82,0,0,0,.85-.79V34.37Z" transform="translate(-16.5 -15)" style="fill:#e4eaf8"/><path d="M284.17,65.84V34.37h-3.78V65.84a.91.91,0,0,0,1,.79h3.78a.91.91,0,0,1-1-.79Z" transform="translate(-16.5 -15)" style="fill:#c7d2e5"/><path d="M293.54,70.82a1.8,1.8,0,1,1-1.8-1.8,1.8,1.8,0,0,1,1.8,1.8Z" transform="translate(-16.5 -15)" style="fill:#3e4b5a"/><path d="M291.91,70.82a2.06,2.06,0,0,1,.43-1.29,1.28,1.28,0,0,0-1-.51,1.85,1.85,0,0,0,0,3.59,1.27,1.27,0,0,0,1-.5,2.1,2.1,0,0,1-.43-1.29Z" transform="translate(-16.5 -15)" style="fill:#374451"/><path d="M292.85,30.78h-4.61c-.37,0-.68-.8-.68-1.79s.31-1.79.68-1.79h4.61c.38,0,.69.8.69,1.79S293.23,30.78,292.85,30.78Z" transform="translate(-16.5 -15)" style="fill:#3e4b5a"/><path d="M302.58,32H280.9c-.28,0-.51.15-.51.33v2.06H303.1V32.31C303.1,32.13,302.87,32,302.58,32Z" transform="translate(-16.5 -15)" style="fill:#54a0ff"/><path d="M285.17,32H281c-.36,0-.64.15-.64.33v2.06h4.78Z" transform="translate(-16.5 -15)" style="fill:#ff6b6b"/><path d="M285.17,32h-4.12c-.36,0-.66.15-.66.33v2.06h4.12V32.31C284.51,32.13,284.8,32,285.17,32Z" transform="translate(-16.5 -15)" style="fill:#ee5253"/><path d="M296.73,43.29c0,2.39-2.25,4.33-5,4.33s-5-1.94-5-4.33,2.26-4.32,5-4.32S296.73,40.91,296.73,43.29Z" transform="translate(-16.5 -15)" style="fill:#1dd1a1"/><path d="M289.86,44.5l-1.54-1.58a.8.8,0,0,1,0-1.13.76.76,0,0,1,1.11,0l1,1,2.1-2.14a.76.76,0,0,1,1.11,0,.8.8,0,0,1,0,1.13L291,44.5A.78.78,0,0,1,289.86,44.5Z" transform="translate(-16.5 -15)" style="fill:#e4eaf8"/><path d="M289.39,43.29a4.33,4.33,0,0,1,3-4.1A4.42,4.42,0,0,0,291,39a4.33,4.33,0,1,0,0,8.65,4.42,4.42,0,0,0,1.37-.22A4.33,4.33,0,0,1,289.39,43.29Z" transform="translate(-16.5 -15)" style="fill:#15ba8b"/><path d="M250,48.5l-5-2.89v5.78ZM112,49H245.5V48H112Z" transform="translate(-16.5 -15)" style="fill:#072777;fill-opacity:0.4000000059604645"/><path d="M207.26,134.43l5.77-.14-3-4.93ZM253,106l-42.16,25.66.52.85,42.16-25.66Z" transform="translate(-16.5 -15)" style="fill:#072777;fill-opacity:0.4000000059604645"/></svg>