<svg id="Layer_1" data-name="Layer 1" xmlns="http://www.w3.org/2000/svg" viewBox="0 0 482.57 374.35"><title>maestro</title><path d="M145.9,380.42V355.65c0-9.35-6-15.64-15.55-15.72-5-.08-10.26,1.49-13.9,7-2.73-4.38-7-7-13.07-7A13.08,13.08,0,0,0,91.8,345.8v-4.88H83.19v39.55h8.69v-22c0-6.87,3.81-10.51,9.68-10.51,5.71,0,8.61,3.72,8.61,10.42v22h8.69V358.5c0-6.87,4-10.51,9.68-10.51,5.87,0,8.69,3.72,8.69,10.42v22Zm48.48-19.77V340.88h-8.61v4.77c-2.73-3.56-6.87-5.79-12.49-5.79-11.09,0-19.77,8.69-19.77,20.77s8.69,20.77,19.77,20.77c5.63,0,9.76-2.23,12.49-5.79v4.8h8.61Zm-32,0c0-6.95,4.55-12.66,12-12.66,7.12,0,11.91,5.46,11.91,12.66s-4.8,12.66-11.91,12.66c-7.47,0-12-5.71-12-12.66ZM378.5,339.84a22.23,22.23,0,0,1,8.49,1.59,20.62,20.62,0,0,1,6.75,4.38,20.12,20.12,0,0,1,4.46,6.59,22,22,0,0,1,0,16.52,20.12,20.12,0,0,1-4.46,6.59,20.62,20.62,0,0,1-6.75,4.38,23.41,23.41,0,0,1-17,0,20.43,20.43,0,0,1-6.73-4.38,20.22,20.22,0,0,1-4.44-6.59,22,22,0,0,1,0-16.52,20.22,20.22,0,0,1,4.44-6.59,20.43,20.43,0,0,1,6.73-4.38A22.36,22.36,0,0,1,378.5,339.84Zm0,8.14a12.91,12.91,0,0,0-4.91.93,11.73,11.73,0,0,0-3.92,2.6,12.17,12.17,0,0,0-2.6,4,14.34,14.34,0,0,0,0,10.28,12.17,12.17,0,0,0,2.6,4,11.73,11.73,0,0,0,3.92,2.6,13.45,13.45,0,0,0,9.83,0,11.74,11.74,0,0,0,6.56-6.6,14.34,14.34,0,0,0,0-10.28,11.74,11.74,0,0,0-6.56-6.6,12.93,12.93,0,0,0-4.92-.94ZM241.2,360.65c-.08-12.33-7.69-20.77-18.78-20.77-11.58,0-19.69,8.44-19.69,20.77,0,12.58,8.44,20.77,20.27,20.77,6,0,11.42-1.49,16.22-5.54L235,369.51a18.82,18.82,0,0,1-11.5,4.14c-5.54,0-10.59-2.56-11.83-9.68H241C241.1,362.88,241.2,361.81,241.2,360.65Zm-29.45-3.47c.91-5.71,4.38-9.6,10.51-9.6,5.54,0,9.1,3.47,10,9.6Zm65.69-6.2a25.59,25.59,0,0,0-12.34-3.4c-4.72,0-7.53,1.74-7.53,4.63,0,2.65,3,3.39,6.7,3.89l4.05.58c8.61,1.24,13.82,4.88,13.82,11.83,0,7.53-6.62,12.91-18,12.91A28.59,28.59,0,0,1,247,376.29l4.05-6.7a21,21,0,0,0,13.16,4.14c5.87,0,9-1.74,9-4.8,0-2.23-2.23-3.47-7-4.14l-4-.58c-8.85-1.24-13.65-5.21-13.65-11.67,0-7.86,6.45-12.66,16.46-12.66,6.29,0,12,1.41,16.13,4.14Zm41.35-2.23H304.72v17.9c0,4,1.41,6.62,5.71,6.62A16,16,0,0,0,318,371l2.48,7.36a20.27,20.27,0,0,1-10.76,3.06c-10.18,0-13.73-5.46-13.73-14.65v-18h-8V341h8V329h8.69v12h14.06Zm29.78-8.85a18.47,18.47,0,0,1,6.12,1.08L352,349.09a14.15,14.15,0,0,0-5.38-1c-5.63,0-8.44,3.64-8.44,10.18v22.17h-8.6V340.88h8.48v4.77a11.66,11.66,0,0,1,10.42-5.79Z" transform="translate(-0.03 -7.14)"/><g id="_Group_" data-name=" Group "><rect x="176.02" y="31.9" width="130.5" height="234.51" style="fill:#7673c0"/><path id="_Path_" data-name=" Path " d="M184.34,156.29A148.91,148.91,0,0,1,241.34,39a149.14,149.14,0,1,0,0,234.51A148.88,148.88,0,0,1,184.34,156.29Z" transform="translate(-0.03 -7.14)" style="fill:#eb001b"/><path d="M482.6,156.29A149.14,149.14,0,0,1,241.3,273.55,149.16,149.16,0,0,0,241.3,39,149.14,149.14,0,0,1,482.6,156.29Z" transform="translate(-0.03 -7.14)" style="fill:#00a1df"/></g></svg>