<svg id="Layer_1" data-name="Layer 1" xmlns="http://www.w3.org/2000/svg" viewBox="0 0 390.25 302.82"><title>mastercard</title><path d="M75.76,307.47v-20.1c0-7.71-4.69-12.73-12.73-12.73a13.23,13.23,0,0,0-11.39,5.69c-2.34-3.68-5.69-5.69-10.72-5.69a10.81,10.81,0,0,0-9.38,4.69v-4h-7v32.16h7V289.71c0-5.69,3-8.37,7.71-8.37s7,3,7,8.37v17.76h7V289.71c0-5.69,3.35-8.37,7.7-8.37,4.69,0,7,3,7,8.37v17.76Zm104.18-32.16H168.55v-9.72h-7v9.72h-6.37v6.36h6.37v14.74c0,7.37,3,11.73,11,11.73a18.71,18.71,0,0,0,8.71-2.35l-2-6a11,11,0,0,1-6,1.68c-3.35,0-4.69-2-4.69-5.36V281.67h11.39v-6.36Zm59.63-.67a9.46,9.46,0,0,0-8.38,4.69v-4h-7v32.16h7V289.38c0-5.36,2.35-8.38,6.7-8.38a20,20,0,0,1,4.36.67l2-6.7a22.44,22.44,0,0,0-4.69-.33ZM149.46,278c-3.35-2.35-8-3.35-13.07-3.35-8,0-13.4,4-13.4,10.38,0,5.36,4,8.38,11.06,9.38l3.35.34c3.68.67,5.69,1.67,5.69,3.35,0,2.34-2.68,4-7.37,4A18.54,18.54,0,0,1,125,298.76l-3.35,5.36a23.71,23.71,0,0,0,13.74,4c9.38,0,14.74-4.36,14.74-10.39,0-5.69-4.36-8.71-11.06-9.71l-3.35-.34c-3-.33-5.36-1-5.36-3,0-2.35,2.35-3.69,6-3.69a24.23,24.23,0,0,1,10.05,2.68l3-5.69Zm186.92-3.35a9.46,9.46,0,0,0-8.38,4.69v-4h-7v32.16h7V289.38c0-5.36,2.35-8.38,6.7-8.38a20,20,0,0,1,4.36.67l2-6.7a22.44,22.44,0,0,0-4.69-.33ZM246.6,291.39c0,9.71,6.7,16.75,17.09,16.75,4.69,0,8-1,11.39-3.69l-3.35-5.69a13.54,13.54,0,0,1-8.38,3c-5.69,0-9.71-4-9.71-10.38,0-6,4-10.05,9.71-10.39a13.55,13.55,0,0,1,8.38,3l3.35-5.7c-3.35-2.68-6.7-3.68-11.39-3.68-10.39,0-17.09,7-17.09,16.75Zm65,0V275.31h-7v4a12.07,12.07,0,0,0-10-4.69c-9.05,0-16.08,7-16.08,16.75s7,16.75,16.08,16.75c4.69,0,8-1.68,10-4.69v4h7Zm-25.79,0c0-5.7,3.68-10.39,9.71-10.39,5.7,0,9.71,4.36,9.71,10.39,0,5.69-4,10.38-9.71,10.38-6-.33-9.71-4.69-9.71-10.38Zm-84.08-16.75c-9.38,0-16.08,6.7-16.08,16.75s6.7,16.75,16.41,16.75a20.44,20.44,0,0,0,13.06-4.36l-3.34-5a16,16,0,0,1-9.38,3.35c-4.36,0-8.71-2-9.72-7.71h23.78v-2.68c.34-10.38-5.69-17.08-14.73-17.08Zm0,6c4.35,0,7.37,2.68,8,7.7H193c.67-4.35,3.68-7.7,8.71-7.7Zm174.52,10.72V262.58h-7v16.75a12.1,12.1,0,0,0-10-4.69c-9.05,0-16.08,7-16.08,16.75s7,16.75,16.08,16.75c4.69,0,8-1.68,10-4.69v4h7Zm-25.79,0c0-5.7,3.68-10.39,9.71-10.39,5.7,0,9.72,4.36,9.72,10.39,0,5.69-4,10.38-9.72,10.38-6-.33-9.71-4.69-9.71-10.38Zm-235.16,0V275.31h-7v4a12.1,12.1,0,0,0-10.05-4.69c-9,0-16.08,7-16.08,16.75s7,16.75,16.08,16.75c4.69,0,8-1.68,10.05-4.69v4h7Zm-26.13,0c0-5.7,3.69-10.39,9.72-10.39,5.69,0,9.71,4.36,9.71,10.39,0,5.69-4,10.38-9.71,10.38C92.85,301.44,89.16,297.08,89.16,291.39Z" transform="translate(-4.75 -5.31)"/><rect x="142.37" y="25.79" width="105.52" height="189.6" style="fill:#ff5f00"/><path d="M153.81,125.91a120.89,120.89,0,0,1,45.9-94.8A120.55,120.55,0,1,0,125.34,246.5a119.87,119.87,0,0,0,74.37-25.79A120.41,120.41,0,0,1,153.81,125.91Z" transform="translate(-4.75 -5.31)" style="fill:#eb001b"/><path d="M395,125.91a120.47,120.47,0,0,1-195,94.8,120.86,120.86,0,0,0,0-189.6,119.85,119.85,0,0,1,74.37-25.8C341.07,5.31,395,59.58,395,125.91Z" transform="translate(-4.75 -5.31)" style="fill:#f79e1b"/></svg>