<svg id="Layer_1" data-name="Layer 1" xmlns="http://www.w3.org/2000/svg" viewBox="0 0 400 400"><title>new_withdraw</title><path d="M200,200a51.09,51.09,0,0,0-30.3,10.11A59.15,59.15,0,0,0,149.61,237a65.63,65.63,0,0,0-3.11,34.67,62.13,62.13,0,0,0,14.93,30.72,53.26,53.26,0,0,0,27.93,16.42,50,50,0,0,0,31.51-3.42,56,56,0,0,0,24.48-22.09,64.31,64.31,0,0,0,9.2-33.34,63.21,63.21,0,0,0-16-42.43C228.34,206.32,214.47,200,200,200Zm0,80a17,17,0,0,1-10.1-3.37,19.74,19.74,0,0,1-6.7-9,21.92,21.92,0,0,1-1-11.55,20.7,20.7,0,0,1,5-10.24,17.84,17.84,0,0,1,9.31-5.48A16.7,16.7,0,0,1,207,241.52a18.74,18.74,0,0,1,8.16,7.37A21.41,21.41,0,0,1,218.18,260a21,21,0,0,1-5.32,14.14A17.4,17.4,0,0,1,200,280ZM187.09,154.2a18.08,18.08,0,0,0,6,4.2,15.72,15.72,0,0,0,13.82,0,18.08,18.08,0,0,0,6-4.2l41.64-45a22.16,22.16,0,0,0,0-29.2A17.59,17.59,0,0,0,228,80l-9.82,11.8V20a21.05,21.05,0,0,0-5.32-14.14,17,17,0,0,0-25.72,0A21.05,21.05,0,0,0,181.82,20V91.8L172,80a17.59,17.59,0,0,0-26.55,0,22.16,22.16,0,0,0,0,29.2ZM327.27,260a21.41,21.41,0,0,0-3.06-11.11,18.74,18.74,0,0,0-8.16-7.37,16.7,16.7,0,0,0-10.51-1.14,17.84,17.84,0,0,0-9.31,5.48,20.7,20.7,0,0,0-5,10.24,21.92,21.92,0,0,0,1,11.55,19.74,19.74,0,0,0,6.7,9,17,17,0,0,0,10.1,3.37A17.4,17.4,0,0,0,322,274.14,21,21,0,0,0,327.27,260Zm18.18-140H290.91a17.4,17.4,0,0,0-12.86,5.86,21.45,21.45,0,0,0,0,28.28A17.4,17.4,0,0,0,290.91,160h54.54a17.39,17.39,0,0,1,12.86,5.86A21.06,21.06,0,0,1,363.64,180V340a21.06,21.06,0,0,1-5.33,14.14A17.39,17.39,0,0,1,345.45,360H54.55a17.39,17.39,0,0,1-12.86-5.86A21.06,21.06,0,0,1,36.36,340V180a21.06,21.06,0,0,1,5.33-14.14A17.39,17.39,0,0,1,54.55,160h54.54A17.4,17.4,0,0,0,122,154.14a21.45,21.45,0,0,0,0-28.28A17.4,17.4,0,0,0,109.09,120H54.55C40.08,120,26.2,126.32,16,137.57A63.21,63.21,0,0,0,0,180V340a63.21,63.21,0,0,0,16,42.43C26.2,393.68,40.08,400,54.55,400h290.9c14.47,0,28.34-6.32,38.57-17.57A63.21,63.21,0,0,0,400,340V180a63.21,63.21,0,0,0-16-42.43C373.79,126.32,359.92,120,345.45,120ZM72.73,260a21.41,21.41,0,0,0,3.06,11.11A18.74,18.74,0,0,0,84,278.48a16.7,16.7,0,0,0,10.51,1.14,17.84,17.84,0,0,0,9.31-5.48,20.66,20.66,0,0,0,5-10.24,21.92,21.92,0,0,0-1-11.55,19.74,19.74,0,0,0-6.7-9A17,17,0,0,0,90.91,240a17.4,17.4,0,0,0-12.86,5.86A21.05,21.05,0,0,0,72.73,260Z" transform="translate(0 0)" style="fill:#fff"/></svg>