<svg id="Layer_1" data-name="Layer 1" xmlns="http://www.w3.org/2000/svg" viewBox="0 0 400 400"><title>new_transfer</title><path d="M398.1,158a26.94,26.94,0,0,0,1.42-15,26.32,26.32,0,0,0-6.85-13.29L267.67,0,232.32,36.69l82.33,85.46H0v51.9H375a24.39,24.39,0,0,0,13.89-4.37A25.82,25.82,0,0,0,398.1,158ZM1.9,242A27,27,0,0,0,.48,257a26.32,26.32,0,0,0,6.85,13.29L132.33,400l35.35-36.69L85.35,277.85H400V226H25a24.37,24.37,0,0,0-13.89,4.37A25.75,25.75,0,0,0,1.9,242Z" transform="translate(0 0)" style="fill:#ff7800"/></svg>