<svg id="Layer_1" data-name="Layer 1" xmlns="http://www.w3.org/2000/svg" viewBox="0 0 317.76 393.44"><title>notification</title><path d="M325.23,316.38c-1.18-.75-10.06-6.85-19-25.29-16.33-33.88-19.76-81.6-19.76-115.66,0-.15,0-.3,0-.44-.18-45-27.7-83.84-67.07-101.25V47.11c0-24.17-20-43.83-44.66-43.83h-3.71c-24.62,0-44.66,19.66-44.66,43.83V73.74C86.89,91.21,59.32,130.22,59.32,175.43c0,34.06-3.43,81.78-19.77,115.66-8.89,18.44-17.78,24.54-19,25.29a11.16,11.16,0,0,0-6.28,12.75c1.16,5.33,6.24,9,11.8,9h86.24c.48,32.38,27.45,58.58,60.56,58.58s60.09-26.2,60.57-58.58h86.24c5.55,0,10.64-3.68,11.8-9A11.15,11.15,0,0,0,325.23,316.38ZM149.93,47.11a21,21,0,0,1,21.13-20.74h3.71A21,21,0,0,1,195.9,47.11V66.26a116.25,116.25,0,0,0-46,0V47.11Zm23,326.52c-20.13,0-36.56-15.85-37-35.49H210C209.48,357.78,193.05,373.63,172.91,373.63ZM220.29,315H52.92a117.69,117.69,0,0,0,6.17-10.6c15.77-30.46,23.76-73.87,23.76-129,0-48.73,40.4-88.38,90.06-88.38S263,126.7,263,175.47c0,.14,0,.28,0,.42,0,54.92,8,98.17,23.76,128.55a117.69,117.69,0,0,0,6.17,10.6Z" transform="translate(-14.03 -3.28)" style="fill:#fff"/></svg>