<svg id="Layer_1" data-name="Layer 1" xmlns="http://www.w3.org/2000/svg" viewBox="0 0 239.8 154.16"><title>password</title><path d="M5.1,90.12A42.83,42.83,0,0,1,47.92,47.29H202.08A42.83,42.83,0,0,1,244.9,90.12v68.51a42.82,42.82,0,0,1-42.82,42.83H47.92A42.83,42.83,0,0,1,5.1,158.63Zm71,11.06L65.05,112.26,54,101.18a8.57,8.57,0,1,0-12.12,12.13l11.08,11.07L41.86,135.44a8.61,8.61,0,0,0-2.52,6.06,8.63,8.63,0,0,0,.66,3.29,8.57,8.57,0,0,0,14,2.78l11.07-11.09,11.06,11.09a8.74,8.74,0,0,0,2.79,1.86,8.58,8.58,0,0,0,9.34-14L77.16,124.38l11.08-11.07a8.58,8.58,0,0,0-9.34-14A8.74,8.74,0,0,0,76.11,101.18Zm68.52,0-11.07,11.08L122.5,101.18a8.7,8.7,0,0,0-2.78-1.86,8.63,8.63,0,0,0-6.57,0,8.56,8.56,0,0,0-5.29,7.93,8.6,8.6,0,0,0,.65,3.28,8.7,8.7,0,0,0,1.86,2.78l11.08,11.07-11.08,11.06a8.7,8.7,0,0,0-1.86,2.78,8.63,8.63,0,0,0,0,6.57,8.7,8.7,0,0,0,1.86,2.78,8.6,8.6,0,0,0,9.35,1.86,8.7,8.7,0,0,0,2.78-1.86l11.06-11.09,11.07,11.09a8.58,8.58,0,0,0,12.13-12.13l-11.09-11.06,11.09-11.07a8.58,8.58,0,0,0-12.13-12.13Zm31.76,40.32a8.57,8.57,0,0,0,8.56,8.57h17.13a8.57,8.57,0,1,0,0-17.13H185a8.57,8.57,0,0,0-8.56,8.56Z" transform="translate(-5.1 -47.29)"/></svg>