<svg id="Layer_1" data-name="Layer 1" xmlns="http://www.w3.org/2000/svg" viewBox="0 0 336.11 391.38"><title>profile</title><path d="M174.61,214.76h2.62c24-.41,43.36-8.76,57.68-24.72,31.51-35.18,26.27-95.48,25.7-101.24-2.05-43.2-22.67-63.86-39.69-73.51-12.68-7.21-27.49-11.1-44-11.43h-1.39c-9.09,0-26.92,1.46-44,11.11S93.35,45.28,91.31,88.8C90.74,94.56,85.5,154.86,117,190,131.24,206,150.63,214.35,174.61,214.76ZM113.16,90.83c0-.24.08-.49.08-.65,2.7-58.11,44.35-64.35,62.19-64.35h1c22.09.48,59.65,9.4,62.19,64.35a1.59,1.59,0,0,0,.08.65c.08.57,5.81,55.68-20.21,84.7-10.31,11.51-24.06,17.18-42.14,17.34h-.82c-18-.16-31.83-5.83-42.06-17.34C107.51,146.67,113.07,91.32,113.16,90.83Z" transform="translate(-8 -3.86)" style="fill:#fff"/><path d="M344.09,314.76v-.24c0-.65-.08-1.3-.08-2-.49-16.05-1.56-53.57-37.07-65.57l-.82-.24c-36.9-9.32-67.59-30.4-67.92-30.64a11.1,11.1,0,0,0-15.38,2.68,10.86,10.86,0,0,0,2.7,15.23c1.39,1,34,23.43,74.71,33.8,19.06,6.73,21.19,26.91,21.76,45.39a14.73,14.73,0,0,0,.09,2c.08,7.29-.41,18.56-1.72,25-13.26,7.46-65.22,33.23-144.26,33.23-78.72,0-131-25.85-144.34-33.31-1.31-6.48-1.89-17.75-1.72-25,0-.65.08-1.3.08-2,.57-18.48,2.7-38.66,21.77-45.39,40.75-10.37,73.31-32.91,74.7-33.8a10.86,10.86,0,0,0,2.7-15.23A11.1,11.1,0,0,0,113.91,216c-.33.24-30.85,21.32-67.92,30.64-.32.08-.57.16-.81.24C9.66,258.92,8.6,296.44,8.11,312.41a16.56,16.56,0,0,1-.08,2v.24c-.08,4.21-.17,25.86,4.17,36.72a10.43,10.43,0,0,0,4.25,5.1c2.46,1.62,61.29,38.74,159.73,38.74S333.45,358,335.91,356.5a10.87,10.87,0,0,0,4.25-5.1C344.25,340.62,344.17,319,344.09,314.76Z" transform="translate(-8 -3.86)" style="fill:#fff"/></svg>