<svg id="Layer_1" data-name="Layer 1" xmlns="http://www.w3.org/2000/svg" viewBox="0 0 241 216.9"><title>2 Friends</title><path d="M151.66,73.94c0,31.85-26.07,57.38-58.6,57.38s-58.6-25.53-58.6-57.38,26.08-57.39,58.6-57.39S151.66,42.08,151.66,73.94ZM4.5,196.3c0-29.49,40.8-36.87,88.56-36.87,48,0,88.56,7.64,88.56,37.15s-40.8,36.87-88.56,36.87C45,233.45,4.5,225.82,4.5,196.3ZM175.29,75a76.75,76.75,0,0,1-13.7,43.93,2.14,2.14,0,0,0,1.47,3.32,49.8,49.8,0,0,0,6.75.62c22.87.59,43.4-13.83,49.07-35.55,8.41-32.23-16.26-61.16-47.68-61.16a49.81,49.81,0,0,0-9.86,1,1.74,1.74,0,0,0-1.14.67,1.33,1.33,0,0,0,.22,1.49A77.23,77.23,0,0,1,175.29,75Zm37.88,70.53c15.38,3,25.48,8.94,29.67,17.68a25.37,25.37,0,0,1,0,22.63c-6.4,13.53-27.06,17.89-35.09,19a2.5,2.5,0,0,1-2.82-2.8c4.1-37.5-28.52-55.28-37-59.37a.63.63,0,0,1-.4-.66.49.49,0,0,1,.44-.33C186.28,141.32,205.92,143.78,213.17,145.51Z" transform="translate(-4.5 -16.55)" style="fill:#333;fill-rule:evenodd"/></svg>