<svg id="Layer_1" data-name="Layer 1" xmlns="http://www.w3.org/2000/svg" viewBox="0 0 390.65 386.94"><title>refer_friend</title><path d="M336.34,122.14a59,59,0,0,0,32.56-9.78,58.23,58.23,0,0,0,21.58-26,57.64,57.64,0,0,0-12.71-63.25,58.9,58.9,0,0,0-90.15,8.8,57.57,57.57,0,0,0,7.31,73.26A58.87,58.87,0,0,0,336.34,122.14Zm0-103.18a45.89,45.89,0,0,1,25.32,7.61,45.21,45.21,0,0,1,16.79,20.26A44.84,44.84,0,0,1,368.57,96a45.81,45.81,0,0,1-70.12-6.84,44.78,44.78,0,0,1,5.68-57A45.8,45.8,0,0,1,336.34,19Z" transform="translate(-4.29 -6.06)" style="fill:#fff"/><path d="M329.83,83.44a6.52,6.52,0,0,0,4.6-1.89L367,49.31l-9.2-9.12L329.83,67.87,314.9,53.09l-9.21,9.12,19.54,19.34A6.52,6.52,0,0,0,329.83,83.44Z" transform="translate(-4.29 -6.06)" style="fill:#fff"/><path d="M388.41,354.31H381.9V257.57A6.42,6.42,0,0,0,380,253a6.55,6.55,0,0,0-4.61-1.89H297.26V239.77c4.11-7,27-42.3,42.58-66h22.53a32.72,32.72,0,0,0,23-9.45,32.09,32.09,0,0,0,9.54-22.8,6.43,6.43,0,0,0-1.91-4.56,6.55,6.55,0,0,0-4.61-1.89h-65.1a32.72,32.72,0,0,0-22,8.56A32.08,32.08,0,0,0,291,164.65l-21.23,25.73a52.14,52.14,0,0,0-22.66-9.87l-19.4-6.45a6.4,6.4,0,0,0-4.1.06l-2.08-12.44a45.28,45.28,0,0,0,23.11-33.08h7a13.16,13.16,0,0,0,9.2-3.79,12.87,12.87,0,0,0,3.82-9.11v-6.45a12.79,12.79,0,0,0-3-8.19,13.07,13.07,0,0,0-7.56-4.45L262.82,88a6.62,6.62,0,0,0,1.89-4.58V77a45,45,0,0,0-13.36-31.9,45.89,45.89,0,0,0-32.21-13.24H180.08A45.91,45.91,0,0,0,147.86,45.1,45,45,0,0,0,134.5,77v6.45A6.62,6.62,0,0,0,136.39,88l8.66,8.58a13,13,0,0,0-7.56,4.45,12.8,12.8,0,0,0-3,8.19v6.45a12.88,12.88,0,0,0,3.83,9.11,13.14,13.14,0,0,0,9.19,3.79h7a45.08,45.08,0,0,0,7.65,19.22,45.55,45.55,0,0,0,15.47,13.86l-2.09,12.44a6.39,6.39,0,0,0-4.1-.06l-19.4,6.45a52.14,52.14,0,0,0-22.66,9.87L108.2,164.65A32.09,32.09,0,0,0,97.88,143.6a32.69,32.69,0,0,0-22-8.56H10.8a6.52,6.52,0,0,0-4.6,1.89,6.39,6.39,0,0,0-1.91,4.56,32.08,32.08,0,0,0,9.53,22.8,32.72,32.72,0,0,0,23,9.45H59.3L102,240.1v11H23.82a6.52,6.52,0,0,0-4.6,1.89,6.43,6.43,0,0,0-1.91,4.56v96.74H10.8a6.56,6.56,0,0,0-4.6,1.88,6.43,6.43,0,0,0-1.91,4.57v25.79a6.39,6.39,0,0,0,1.91,4.56A6.52,6.52,0,0,0,10.8,393H388.41a6.55,6.55,0,0,0,4.61-1.89,6.43,6.43,0,0,0,1.91-4.56V360.76a6.47,6.47,0,0,0-1.91-4.57A6.58,6.58,0,0,0,388.41,354.31ZM316.8,264h13v12.9h-13Zm-13,0v19.35a6.42,6.42,0,0,0,1.9,4.56,6.57,6.57,0,0,0,4.61,1.89h26a6.52,6.52,0,0,0,4.6-1.89,6.43,6.43,0,0,0,1.91-4.56V264h26v90.29H277.73V264Zm19.53-116.08H380.8a19.47,19.47,0,0,1-7.16,9.34,19.8,19.8,0,0,1-11.27,3.56H304.88a19.4,19.4,0,0,1,7.16-9.33A19.71,19.71,0,0,1,323.31,147.94ZM251.69,115.7h-6.51v-6.45h6.51Zm-97.66,0h-6.51v-6.45H154Zm0-32.25v3.81l-6.51-6.45V77a32.08,32.08,0,0,1,9.54-22.8,32.72,32.72,0,0,1,23-9.44h39.06a32.76,32.76,0,0,1,23,9.44A32.11,32.11,0,0,1,251.69,77v3.81l-6.51,6.45V83.45a6.45,6.45,0,0,0-1.38-4,6.54,6.54,0,0,0-3.57-2.28L188.15,64.3a6.36,6.36,0,0,0-4.49.52l-26,12.89A6.44,6.44,0,0,0,155,80.07,6.33,6.33,0,0,0,154,83.45Zm13,38.7V87.45l20.32-10.06,44.79,11.09v33.67a32.11,32.11,0,0,1-9.53,22.8,32.79,32.79,0,0,1-46,0A32.08,32.08,0,0,1,167.05,122.15Zm45.12,62.29-12.56,12.45L187,184.44l3.06-18.18a44.48,44.48,0,0,0,19,0Zm-40.36,3.1,23.17,23a6.6,6.6,0,0,0,9.25,0l23.18-23,7.35,2.45-25.45,35.34h-19.4L164.45,190ZM211.46,264l7.22,43-19.07,18.9L180.53,307l7.23-43Zm-21.55-12.9,2.21-12.89h15l2.22,12.89ZM36.84,160.84a19.8,19.8,0,0,1-11.27-3.56,19.45,19.45,0,0,1-7.15-9.34H75.91a19.76,19.76,0,0,1,11.27,3.57,19.44,19.44,0,0,1,7.15,9.33Zm37.89,12.9H98.89l56.64,68.55,10-8.13-27.93-33.85a42.83,42.83,0,0,1,13.6-6.52l28.52,39.54-12.63,74.8a6.57,6.57,0,0,0,.23,3,6.5,6.5,0,0,0,1.59,2.59l26,25.8a6.65,6.65,0,0,0,9.25,0l26-25.8a6.5,6.5,0,0,0,1.59-2.59,6.31,6.31,0,0,0,.23-3l-12.63-74.8L248,193.79a43,43,0,0,1,13.61,6.52l-27.93,33.85,10,8.13,56.65-68.55h24c-40.11,61.2-40.11,62.16-40.11,64.49v12.89h-13a6.54,6.54,0,0,0-4.6,1.89,6.43,6.43,0,0,0-1.91,4.56v96.74H134.5V257.57a6.43,6.43,0,0,0-1.91-4.56,6.52,6.52,0,0,0-4.6-1.89H115V238.23a6.11,6.11,0,0,0-1-3.49ZM69.39,264h13v12.9h-13Zm-39.06,0h26v19.35a6.43,6.43,0,0,0,1.91,4.56,6.54,6.54,0,0,0,4.6,1.89H88.93a6.54,6.54,0,0,0,4.6-1.89,6.43,6.43,0,0,0,1.91-4.56V264h26v90.29H30.33ZM381.9,380.1H17.31V367.2H381.9Z" transform="translate(-4.29 -6.06)" style="fill:#fff"/><path d="M23.82,122.14H102a19.65,19.65,0,0,0,13.81-5.66,19.27,19.27,0,0,0,5.72-13.68V25.41a19.27,19.27,0,0,0-5.72-13.68A19.62,19.62,0,0,0,102,6.06H23.82A19.62,19.62,0,0,0,10,11.73,19.27,19.27,0,0,0,4.29,25.41V102.8A19.27,19.27,0,0,0,10,116.48,19.65,19.65,0,0,0,23.82,122.14ZM17.31,25.41a6.43,6.43,0,0,1,1.91-4.56A6.52,6.52,0,0,1,23.82,19H102a6.54,6.54,0,0,1,4.6,1.89,6.43,6.43,0,0,1,1.91,4.56V102.8a6.43,6.43,0,0,1-1.91,4.56,6.53,6.53,0,0,1-4.6,1.88H23.82a6.52,6.52,0,0,1-4.6-1.88,6.43,6.43,0,0,1-1.91-4.56Z" transform="translate(-4.29 -6.06)" style="fill:#fff"/><path d="M43.35,31.86h-13v12.9h13Z" transform="translate(-4.29 -6.06)" style="fill:#fff"/><path d="M95.44,31.86H56.38v12.9H95.44Z" transform="translate(-4.29 -6.06)" style="fill:#fff"/><path d="M95.44,57.66H30.33v12.9H95.44Z" transform="translate(-4.29 -6.06)" style="fill:#fff"/><path d="M95.44,83.44H30.33v12.9H95.44Z" transform="translate(-4.29 -6.06)" style="fill:#fff"/></svg>