<svg id="Layer_1" data-name="Layer 1" xmlns="http://www.w3.org/2000/svg" viewBox="0 0 238.44 204.38"><title>reset_pin</title><path d="M136.11,19.81A102.19,102.19,0,0,0,33.93,122H-.14l45.42,45.42L90.7,122H56.64a79.65,79.65,0,1,1,24.07,56.88l-16.13,16A102.16,102.16,0,1,0,136.11,19.81Zm22.71,90.84V99.29a22.71,22.71,0,1,0-45.41,0v11.36A11.39,11.39,0,0,0,102.05,122v34.06a11.39,11.39,0,0,0,11.36,11.36h45.41a11.39,11.39,0,0,0,11.36-11.36V122A11.39,11.39,0,0,0,158.82,110.65Zm-11.35,0H124.76V99.29a11.36,11.36,0,0,1,22.71,0Z" transform="translate(0.14 -19.81)" style="fill:#333"/></svg>