<svg id="Layer_1" data-name="Layer 1" xmlns="http://www.w3.org/2000/svg" viewBox="0 0 239.89 185.94"><title>set_transaction_pin</title><path d="M23.71,41.33V208.67a9.3,9.3,0,1,1-18.59,0V41.33a9.3,9.3,0,1,1,18.59,0Zm97.62,63.33-23.24,7.56V87.81a9.3,9.3,0,0,0-18.6,0v24.41l-23.24-7.56a9.07,9.07,0,0,0-7.07.5,9,9,0,0,0-4.55,5.43,9.23,9.23,0,0,0-.48,3.61,9.23,9.23,0,0,0,3.22,6.37,9.24,9.24,0,0,0,3.19,1.76l23.24,7.55L59.39,149.64a9.31,9.31,0,0,0-1.66,6.94A9.09,9.09,0,0,0,59,160a9.26,9.26,0,0,0,2.48,2.66,9.4,9.4,0,0,0,13-2.09L88.79,140.8l14.29,19.76a9.4,9.4,0,0,0,13,2.09,9.3,9.3,0,0,0,3.75-6.07,9.31,9.31,0,0,0-1.66-6.94l-14.41-19.76L127,122.33a9.16,9.16,0,0,0,5.44-4.62,9.39,9.39,0,0,0,1-3.51,9.18,9.18,0,0,0-12.1-9.54Zm123.18,5.93a9,9,0,0,0-4.55-5.43,9.19,9.19,0,0,0-3.48-1,9.29,9.29,0,0,0-3.59.47l-23.24,7.56V87.81a9.3,9.3,0,0,0-18.59,0v24.41l-23.25-7.56a9.07,9.07,0,0,0-7.07.5,9.61,9.61,0,0,0-5,9,9.19,9.19,0,0,0,1,3.51,9.16,9.16,0,0,0,5.44,4.62l23.24,7.55L171,149.64a9.19,9.19,0,0,0-1.52,3.3,9.3,9.3,0,0,0-.14,3.64,9.45,9.45,0,0,0,1.27,3.41,9.26,9.26,0,0,0,2.48,2.66,9.4,9.4,0,0,0,13-2.09l14.29-19.76,14.3,19.76a9.39,9.39,0,0,0,13,2.09,9.3,9.3,0,0,0,3.75-6.07,9.3,9.3,0,0,0-.13-3.64,9.39,9.39,0,0,0-1.53-3.3l-14.41-19.76,23.25-7.55a9.29,9.29,0,0,0,3.18-1.76,9.16,9.16,0,0,0,2.74-10Z" transform="translate(-5.12 -32.03)"/></svg>