<svg id="Layer_1" data-name="Layer 1" xmlns="http://www.w3.org/2000/svg" viewBox="0 0 300 300"><title>Setting</title><path d="M282.67,173.7a35.62,35.62,0,0,1,13.07,11.85c6,9.3,5.48,20.7-.32,30.75l-11.3,18a34,34,0,0,1-28.56,15.6,35,35,0,0,1-17.1-4.5c-4.2-2.55-9-3.45-14.2-3.45-16,0-29.37,12.45-29.86,27.3C194.4,286.5,179.56,300,161,300H139.06c-18.72,0-33.57-13.5-33.57-30.75C105.17,254.4,91.78,242,75.8,242c-5.32,0-10.16.9-14.2,3.45a35.46,35.46,0,0,1-17.1,4.5,34.07,34.07,0,0,1-28.72-15.6l-11.14-18c-6-9.75-6.29-21.45-.32-30.75A32.69,32.69,0,0,1,17.23,173.7c4.52-2.1,7.42-5.55,10.16-9.6,8.07-12.9,3.23-29.85-10.48-37.5C.93,118.05-4.23,99,5,84.15l10.81-17.7c9.36-14.85,29.36-20.1,45.5-11.4,14,7.2,32.27,2.4,40.5-10.35,2.58-4.2,4-8.7,3.71-13.2A25.83,25.83,0,0,1,110,15.6C116,6.3,126.79.3,138.57,0h22.75a34.37,34.37,0,0,1,28.73,15.6,25.65,25.65,0,0,1,4.35,15.9,22.34,22.34,0,0,0,3.71,13.2c8.23,12.75,26.47,17.55,40.67,10.35,16-8.7,36.14-3.45,45.34,11.4l10.81,17.7c9.36,14.85,4.2,33.9-11.94,42.45-13.71,7.65-18.55,24.6-10.33,37.5C275.25,168.15,278.15,171.6,282.67,173.7ZM101.83,150.17c0,26.17,21.63,47,48.37,47s47.86-20.83,47.86-47S176.94,103,150.2,103,101.83,124,101.83,150.17Z" transform="translate(0)" style="fill:#072777;fill-rule:evenodd"/></svg>