<svg id="Layer_1" data-name="Layer 1" xmlns="http://www.w3.org/2000/svg" viewBox="0 0 287.99 288"><title>start_investing</title><path d="M292.35,7.65a5.62,5.62,0,0,0-4-1.65H150a5.63,5.63,0,0,0-5.63,5.62V27.72L91.05,42a5.61,5.61,0,0,0-4,6.88L114.71,152l-23.9,23.91a16.89,16.89,0,0,0-13.93-7.36h-54A16.89,16.89,0,0,0,6,185.44v91.68A16.9,16.9,0,0,0,22.88,294h54a16.9,16.9,0,0,0,16.37-12.81L99.94,287a28.35,28.35,0,0,0,18.63,7h169.8a5.63,5.63,0,0,0,5.63-5.63V11.62A5.67,5.67,0,0,0,292.35,7.65ZM82.5,277.12a5.63,5.63,0,0,1-5.62,5.63h-54a5.64,5.64,0,0,1-5.63-5.63V185.44a5.64,5.64,0,0,1,5.63-5.63H44.25v64.8a5.63,5.63,0,1,0,11.25,0v-64.8H76.88a5.63,5.63,0,0,1,5.62,5.63v91.68ZM99.4,51.42l45-12.06V60.21l-3.77,1a5.62,5.62,0,0,0-4,6.89,15.18,15.18,0,0,1-10.71,18.55,5.62,5.62,0,0,0-4,6.9l21.93,81.19H132.58L126.76,152a5.57,5.57,0,0,0-.94-2Zm45,34.58v47.47l-10.26-38A26.21,26.21,0,0,0,144.37,86Zm80.81,196.75H118.57a17.15,17.15,0,0,1-11.24-4.21L93.75,266.69v-77.8l24.56-24.55,4.45,17.42a5.64,5.64,0,0,0,5.45,4.24H238.8a7.88,7.88,0,1,1,0,15.75H182.13a5.63,5.63,0,0,0,0,11.25h74.28a7.88,7.88,0,0,1,0,15.75H182.13a5.63,5.63,0,0,0,0,11.25h62.24a7.88,7.88,0,1,1,0,15.75H182.13a5.63,5.63,0,0,0,0,11.25h43.05a7.88,7.88,0,1,1,0,15.75Zm57.57,0H242.61a19.09,19.09,0,0,0,0-15.75h1.76a19.11,19.11,0,0,0,17.1-27.68,19.12,19.12,0,0,0,10.29-29.84V138.19a5.63,5.63,0,0,0-11.25,0v64a19.22,19.22,0,0,0-4.1-.45h-.19a19.12,19.12,0,0,0-17.42-27h-9a26.93,26.93,0,1,0-21.15,0H177.86V67.8A26.48,26.48,0,0,0,198,47.63h42.31A26.48,26.48,0,0,0,260.51,67.8V85.29a5.63,5.63,0,0,0,11.25,0V62.78a5.63,5.63,0,0,0-5.63-5.63A15.15,15.15,0,0,1,251,42a5.63,5.63,0,0,0-5.63-5.63H193A5.63,5.63,0,0,0,187.38,42a15.15,15.15,0,0,1-15.14,15.14,5.63,5.63,0,0,0-5.63,5.63v112h-11V17.26H282.75ZM219.18,165.67A15.67,15.67,0,1,1,234.85,150,15.69,15.69,0,0,1,219.18,165.67Z" transform="translate(-6 -6)" style="fill:#fff"/></svg>