<svg id="Layer_1" data-name="Layer 1" xmlns="http://www.w3.org/2000/svg" viewBox="0 0 240 240"><title>Transaction info</title><path d="M187.16,33.92a28.92,28.92,0,1,1,28.92,28.92A28.94,28.94,0,0,1,187.16,33.92ZM141,158.11l34.68-44.75-.48.24a9,9,0,0,0,1-9,8.85,8.85,0,0,0-7.31-5.28A9.22,9.22,0,0,0,160.4,103l-29,37.56L98.12,114.44a9.49,9.49,0,0,0-6.84-1.92,9.29,9.29,0,0,0-6,3.59L49.77,162.32,49,163.4a9,9,0,0,0,2.52,11.4,10.08,10.08,0,0,0,5.52,1.8,8.5,8.5,0,0,0,7.08-3.6l30.12-38.77,34.2,25.69,1.08.71A9,9,0,0,0,141,158.11ZM166.4,26.36a56.88,56.88,0,0,0-.72,9A48.77,48.77,0,0,0,214.4,84.19a55.57,55.57,0,0,0,8.88-.83v96.83c0,40.69-24,64.81-64.8,64.81H69.81C29,245,5,220.88,5,180.19V91.4c0-40.8,24-65,64.81-65Z" transform="translate(-5 -5)" style="fill:#130f26;fill-rule:evenodd"/></svg>