<svg id="Layer_1" data-name="Layer 1" xmlns="http://www.w3.org/2000/svg" viewBox="0 0 287.95 165.55"><title>transfer</title><path d="M290.77,72.1l-72-52.67a13.1,13.1,0,0,0-14.55,0,6.67,6.67,0,0,0-3,5.32V47.32h-72c-5.68,0-10.28,3.37-10.28,7.53s4.6,7.52,10.28,7.52h82.27c5.68,0,10.29-3.36,10.29-7.52V42.91L269,77.42,221.8,111.93V100c0-4.16-4.61-7.53-10.29-7.53H98.39V69.9c0-4.16-4.61-7.53-10.29-7.52a12.47,12.47,0,0,0-7.27,2.2l-72,52.67c-4,2.94-4,7.71,0,10.64l72,52.68a12.47,12.47,0,0,0,7.27,2.2A13.18,13.18,0,0,0,92,182.2c3.84-1.16,6.35-3.91,6.35-6.95V152.67h72c5.68,0,10.28-3.36,10.28-7.52s-4.6-7.53-10.28-7.53H88.1c-5.68,0-10.28,3.37-10.28,7.53v11.93L30.66,122.57,77.82,88.06V100c0,4.16,4.6,7.52,10.28,7.52H201.23V130.1c0,4.16,4.61,7.52,10.29,7.52a12.47,12.47,0,0,0,7.27-2.2l72-52.68C294.79,79.81,294.79,75,290.77,72.1Z" transform="translate(-5.83 -17.23)" style="fill:#fff"/></svg>