<svg id="Layer_1" data-name="Layer 1" xmlns="http://www.w3.org/2000/svg" viewBox="0 0 204.71 238.83"><title>transaction_pin</title><path d="M193.24,85.28H216a11.37,11.37,0,0,1,11.38,11.37V233.13A11.37,11.37,0,0,1,216,244.5H34a11.37,11.37,0,0,1-11.38-11.37V96.65A11.37,11.37,0,0,1,34,85.28H56.76V73.9a68.24,68.24,0,0,1,136.48,0Zm-22.75,0V73.9a45.49,45.49,0,0,0-91,0V85.28Zm-56.86,68.24v22.74h22.74V153.52Zm-45.5,0v22.74H90.88V153.52Zm91,0v22.74h22.75V153.52Z" transform="translate(-22.64 -5.67)"/></svg>