<svg id="Layer_1" data-name="Layer 1" xmlns="http://www.w3.org/2000/svg" viewBox="0 0 196.92 231.67"><title>Unlock</title><path d="M81.28,86.9H174c27.31,0,49.45,21.66,49.45,48.37v57.2c0,26.71-22.14,48.36-49.45,48.36H76c-27.3,0-49.44-21.65-49.44-48.36v-57.2c0-22,15.07-40.31,35.57-46.2l-1.28.15V71.57c.23-34.42,28.85-62.4,63.92-62.4,27.43,0,51.66,16.93,60.61,42A10,10,0,0,1,179,64a10.49,10.49,0,0,1-13.18-6.22A43.15,43.15,0,0,0,125,29.31c-24,0-43.43,18.9-43.56,42V86.88Zm43.66,99.82a10.19,10.19,0,0,0,10.36-10.13V151a10.3,10.3,0,0,0-20.6,0v25.56A10.16,10.16,0,0,0,124.94,186.72Z" transform="translate(-26.54 -9.17)" style="fill:#333;fill-rule:evenodd"/></svg>