<svg id="Layer_1" data-name="Layer 1" xmlns="http://www.w3.org/2000/svg" viewBox="0 0 144.26 139.2"><title>wallet</title><path d="M109.08,21.38A17.72,17.72,0,1,1,91.36,3.66,17.71,17.71,0,0,1,109.08,21.38ZM2.78,80.67a34,34,0,0,1,34-34H100.4A34,34,0,0,1,133.27,72H91.36a22.78,22.78,0,0,0,0,45.56h41.91a34,34,0,0,1-32.87,25.31H36.77a34,34,0,0,1-34-34ZM81.24,93.51A13.92,13.92,0,0,1,95.16,79.59h38a13.92,13.92,0,0,1,0,27.84h-38A13.92,13.92,0,0,1,81.24,93.51Zm22.78,0a8.86,8.86,0,1,1-8.86-8.86A8.86,8.86,0,0,1,104,93.51ZM68.59,39.09H33.15a17.72,17.72,0,0,1,35.44,0Z" transform="translate(-2.78 -3.66)" style="fill:#d2d4d9;fill-rule:evenodd"/></svg>