<svg width="23" height="21" viewBox="0 0 23 21" fill="none" xmlns="http://www.w3.org/2000/svg">
<path fill-rule="evenodd" clip-rule="evenodd" d="M16.4394 3.12659C16.4394 4.56616 15.2724 5.73316 13.8329 5.73316C12.3933 5.73316 11.2263 4.56616 11.2263 3.12659C11.2263 1.68702 12.3933 0.52002 13.8329 0.52002C15.2724 0.52002 16.4394 1.68702 16.4394 3.12659ZM0.800049 11.85C0.800049 9.0886 3.03863 6.85002 5.80005 6.85002H15.1631C17.4833 6.85002 19.4343 8.43031 19.9986 10.5733H13.8329C11.982 10.5733 10.4816 12.0737 10.4816 13.9246C10.4816 15.7754 11.982 17.2759 13.8329 17.2759H19.9989C19.4349 19.4192 17.4836 21 15.1631 21H5.80005C3.03862 21 0.800049 18.7614 0.800049 16V11.85ZM12.3434 13.7389C12.3434 12.6078 13.2603 11.6909 14.3914 11.6909H19.9769C21.108 11.6909 22.0249 12.6078 22.0249 13.7389C22.0249 14.87 21.108 15.7869 19.9769 15.7869H14.3914C13.2603 15.7869 12.3434 14.87 12.3434 13.7389ZM15.6947 13.7395C15.6947 14.4593 15.1112 15.0428 14.3915 15.0428C13.6717 15.0428 13.0882 14.4593 13.0882 13.7395C13.0882 13.0197 13.6717 12.4362 14.3915 12.4362C15.1112 12.4362 15.6947 13.0197 15.6947 13.7395ZM10.4816 5.73325V5.73355H5.26846V5.73325C5.26846 4.29369 6.43546 3.12669 7.87503 3.12669C9.3146 3.12669 10.4816 4.29369 10.4816 5.73325Z" fill="#D2D4D9"/>
</svg>
