<svg id="svg" xmlns="http://www.w3.org/2000/svg" viewBox="0 0 380 345.04"><title>image2vector</title><g id="svgg"><path id="path0" d="M103.74,28.24c1.43.4,1.11,34.2-.32,34.2-.18,0-.32,6.49-.32,14.43,0,15.73-.23,17.58-2.39,19.16-2.63,1.92-2.45,1.73-1.6,1.74a6.67,6.67,0,0,0,4.31-1.72l1-1,.24-16.4c.13-9,.26-16.86.28-17.43l0-1.05h14.35L121,61.77l1.66,1.62.1,123.1c0,67.71.23,123.2.39,123.31a9.64,9.64,0,0,1,1,2.39c.8,2.58,3.15,5.38,5.06,6,.7.23,1.28.56,1.28.73s.64.43,1.43.57a33.2,33.2,0,0,1,6.55,2.12,7.19,7.19,0,0,0,1.6.91,3.49,3.49,0,0,1,1.67,1.47,6.28,6.28,0,0,0,1.34,1.89,3.81,3.81,0,0,1,1.09,1.6,2.19,2.19,0,0,0,.87,1.21c1,.76,1.84,2.47,2.57,5,.27.88.62,1.61.8,1.61s.32.36.32.81c0,1.06,1.53,3.75,2.14,3.75a1.6,1.6,0,0,1,1,.7c1.15,1.61.26,1.58,48.34,1.58,45.85,0,48.11-.05,48.11-1.2,0-.17.22-.32.48-.32.83,0,4.08-3.51,4.08-4.4a7.25,7.25,0,0,1,1.52-2.82,28.35,28.35,0,0,0,1.34-3.56,19.05,19.05,0,0,1,1.8-4.15,2.73,2.73,0,0,0,.66-1.4,3.36,3.36,0,0,1,2.4-2.29c.35,0,.64-.16.64-.35s2-.81,4.37-1.38a19.2,19.2,0,0,0,4.37-1.33c0-.17.56-.48,1.25-.71a9,9,0,0,0,4.69-4.89,6.63,6.63,0,0,1,1.07-2.06c.28-.19.47-37.78.63-122.74.24-126.63.23-125.49,1.67-126.15a3,3,0,0,0,1.28-1.3l.41-.91h7.23c6.62,0,7.23.06,7.27.67,0,.36.15,8.2.29,17.41L296,95l1.19,1.19a4.48,4.48,0,0,0,3.23,1.41c1.78.2,1.94.17,1.25-.26-4.2-2.63-4.11-2.2-4.34-21.13-.16-13.73-.27-16.12-.76-16.42S296,57.31,296,44c0-10-.13-15.42-.38-15.45s0-.15.49-.28-3.49-.24-8.83-.22-9.74.09-9.8.19c-.81,1.31-1,1.87-.65,1.87s.05.51-.4,1.14l-.81,1.14h.86c.83,0,.83,0,.12.54-.41.3-.61.67-.46.82s.09.51-.14.79-.23.52.48.54c.49,0,.69.12.42.22-.53.22-.66,2.41-.13,2.41s.39-.27.65,9.95l.21,8.24-1.74,1.68c-3.23,3.09.82,2.93-75.48,2.93-69.55,0-72.94-.07-72.94-1.6,0-.16-.21-.3-.47-.3a8.54,8.54,0,0,1-2.28-1.23l-1.81-1.24V48.89c0-4.69.14-7.33.39-7.42a5.17,5.17,0,0,0,.53-2.59,17.72,17.72,0,0,1,.37-3.13c.53-1.52.55-1.77.13-1.91s-.15-.62.4-1.56c1-1.69,1-1.76.27-1.76-.31,0-.57-.17-.57-.38s-.6-.38-1.33-.38c-1.08,0-1.33-.14-1.33-.76,0-.42-.13-.76-.28-.77-2.51-.14-18.2-.13-17.7,0M92.27,225.46c0,70.33,0,99.1.09,63.94s.06-92.71,0-127.87-.09-6.4-.09,63.93m2.94-1.26c0,69.63-.2,126.91-.34,127.3s-.13.59.19.29.42-32.13.35-127.3l-.1-126.9-.1,126.61m.76.19c-.09,123.32-.06,128,.76,128,.24,0,.22-.19,0-.51s-.45-34.37-.53-127.4L96.07,97.59,96,224.39M209.12,122.32c2.82.32,5.19.75,5.26,1s.51.35,1,.35a6.45,6.45,0,0,1,4.4,1.92c1,1.1,4.62,3,5.75,3,.35,0,.69.13.76.29a8,8,0,0,0,2.37,1c1.85.57,2.75,1.19,5.13,3.51a25.52,25.52,0,0,0,3.16,2.81,9.34,9.34,0,0,1,1.9,1.52,10.79,10.79,0,0,0,1.88,1.52A6.43,6.43,0,0,1,242,141a18,18,0,0,0,1.52,2.27,13,13,0,0,1,1.3,1.81,16.54,16.54,0,0,0,1.84,2.4c2.72,2.84,3.45,4.3,4.23,8.53a7.44,7.44,0,0,0,.73,2.56,5.92,5.92,0,0,1,.75,2.18,11.45,11.45,0,0,0,1,2.93,3.06,3.06,0,0,1,.53,1.4.84.84,0,0,0,.43.79c2.26.76,2.28,21.22,0,22.69-.5.33-1.81,3.47-2.11,5.08-.15.78-.41,1.41-.58,1.41s-.43.71-.56,1.57c-.3,1.88-1.71,6.14-2.11,6.41a6.62,6.62,0,0,0-1,1.62,14.45,14.45,0,0,1-2.33,3.12,6.92,6.92,0,0,0-1.67,2.2c0,.63-1,1.94-2.52,3.48a22.33,22.33,0,0,1-3.49,2.89,7,7,0,0,0-1.86,2.2,3.45,3.45,0,0,1-1.45,1.59,2.07,2.07,0,0,0-1.07.92.92.92,0,0,1-.76.6,20.2,20.2,0,0,0-5.5,2.54,1.7,1.7,0,0,1-.76.5,5.76,5.76,0,0,0-1.43,1.1,12.08,12.08,0,0,1-5.82,2.93c-.86.14-1.56.37-1.56.51a22.73,22.73,0,0,1-4.66.95c-2.56.38-5.93.92-7.5,1.21-5.39,1-20.89-.54-22-2.18a9.46,9.46,0,0,0-2.63-.71c-3.31-.6-5.36-1.48-6.42-2.75a2.92,2.92,0,0,0-1.45-1.06.92.92,0,0,1-.77-.6c-.23-.59-3.95-2.44-4.91-2.44a1.34,1.34,0,0,1-.91-.73,2.22,2.22,0,0,0-1.11-1,3.16,3.16,0,0,1-1.34-1.52,6.57,6.57,0,0,0-1.84-2.16,5.86,5.86,0,0,1-1.36-1.17,3.63,3.63,0,0,0-1.2-.86,5.9,5.9,0,0,1-1.94-2.27,4.92,4.92,0,0,0-1.13-1.72c-.15,0-.37-.39-.49-.88a8.44,8.44,0,0,0-1.92-2.55,13.17,13.17,0,0,1-2.37-3.21,9.39,9.39,0,0,0-.92-1.72,29.21,29.21,0,0,1-1.29-4.18,27.41,27.41,0,0,0-1.29-4.18,18.38,18.38,0,0,1-1.38-2.47,19.94,19.94,0,0,0-1.38-2.47c-1.68-1.35-1.61-23.18.08-23.18.19,0,.35-.27.35-.59a18.57,18.57,0,0,1,2.33-5.12,20.6,20.6,0,0,0,1.31-4,24.38,24.38,0,0,1,1.27-4,5.48,5.48,0,0,0,.77-1.45,11.34,11.34,0,0,1,2-2.79,8.24,8.24,0,0,0,1.46-1.81,3.81,3.81,0,0,1,.88-1.25,19.23,19.23,0,0,0,2-2.79,14,14,0,0,1,4.09-4.35c.41-.31,1.22-1,1.8-1.42a5.6,5.6,0,0,1,1.28-.86,25.62,25.62,0,0,0,2.76-2.47,13.48,13.48,0,0,1,3.06-2.47,2.32,2.32,0,0,0,1.19-.66,18.12,18.12,0,0,1,3.81-1.94,19.43,19.43,0,0,0,4-2.1A8.12,8.12,0,0,1,183,124a6.73,6.73,0,0,0,2.25-.86c.78-1.19,16.24-1.74,23.91-.85M93,354.1c-.68,1.23-1.18,4.62-.78,5.19.27.37.31.33.15-.16s0-.67.15-.67.37-.55.38-1.23c0-.91.09-1.09.36-.68.56.9.94-.55.51-2-.33-1.14-.38-1.17-.77-.45m2.83,3.45a1.36,1.36,0,0,0-.28.86c0,.43.11.47.42.16a.94.94,0,0,0,.28-.86c-.08-.24-.27-.31-.42-.16m-2.16.93a2.39,2.39,0,0,0,.31,1.33c.65.72.84,2.82.23,2.58s-.7.23,0,1.18c.51.66.56.67.56.07,0-.36.17-.56.38-.43s.38.1.39-.07c0-1.95,2.15-.68,2.43,1.47.09.73.45.53.52-.3.05-.64-.07-.86-.37-.68s-.36.07-.21-.33c.27-.7-1.41-2-2.49-1.89-.44,0-.66-.19-.61-.6a5.13,5.13,0,0,0-.54-2c-.56-1.23-.61-1.26-.62-.36M92.46,360c-.48.3-.44.47.27,1.13.88.82,1.73,1.11,1,.33a1.7,1.7,0,0,1-.45-1.05c0-.52,0-.52.41,0s.37.47.25,0c-.19-.71-.72-.87-1.43-.42m213.44,2.19a1.72,1.72,0,0,0,.1,1c.26.7.28.7.49-.09s-.24-1.53-.59-.94M96.44,363.31c.14.26,0,.47-.23.47s-.37.11-.06.42c.75.75,1.33.21.66-.61-.33-.42-.5-.54-.37-.28m192.35,8.74c-.1.15.39.28,1.08.28s1.18-.13,1.08-.28a2.16,2.16,0,0,0-2.16,0" transform="translate(-10 -27.51)" style="fill:#e4e4e4;fill-rule:evenodd"/><path id="path1" d="M100.62,28.72c-.15.47-.25,6.58-.21,13.58.07,10.68,0,13.25-.57,16s-.69,6.39-.88,19c-.24,16.31-.32,17.07-1.79,17.07a3,3,0,0,0-1.08.72,17.13,17.13,0,0,1-2.68,1.74l-1.9,1,3.42-.24c3.65-.25,3.52-.18,6-3.2,1.22-1.51,1.37-3.35,1.41-16.77,0-12.83.51-20.52,1.27-20.52.34,0,.28-17.65-.07-23.5a14.4,14.4,0,0,1,0-3.71c.14-.08,0-.57-.19-1.1a1.47,1.47,0,0,0-2.73-.09m25.85-.49c3.45.15,4.42.28,3.23.43-.94.12,31.21.19,71.44.15,49.09,0,73.65-.2,74.67-.47S253.93,28,199.43,28c-42.84,0-75.68.13-73,.25m170.39-.18a10.3,10.3,0,0,0,0,2c0,.15,0,6,0,13,0,9.44.13,13.79.55,16.72s.61,8,.68,18.22l.1,14.25,1.15,1.87c1.74,2.81,2.52,3.24,6.26,3.46,2.77.16,3.09.12,2.26-.29-1.68-.84-4.54-2.75-4.54-3s-.26-.29-.57-.29-.57-.38-.57-1.14-.17-1.14-.38-1.14-.38-4.92-.38-14c0-12.35-.09-14.49-.76-18.23s-.76-5.84-.75-16.69c0-14.76,0-14.93-1.77-14.93a2.66,2.66,0,0,0-1.32.19m-130.17,2c19.19.05,50.48.05,69.54,0s3.35-.1-34.9-.1-53.84,0-34.64.1m-34.33.85c0,.25,22.86.38,67.83.38S268,31.15,268,30.9s-22.86-.38-67.83-.38-67.83.13-67.83.38m.17,6.81c.12.19,0,.43-.26.54s30,.21,67.18.22c39.78,0,67.81-.11,68-.31a2.92,2.92,0,0,1,1.12-.53c.42-.1-30.07-.2-67.76-.22-41.33,0-68.43.09-68.3.3m-.46,1.44c-.89.17-1.19.86-.37.88.26,0,.17.19-.2.41s-.58.55-.46.75,0,.35-.18.35-.4,2.43-.4,7.36v7.36l1.43.24c.78.13,31.52.23,68.3.23s67.52-.1,68.31-.23l1.42-.24V48.9c0-4.93-.13-7.36-.4-7.36s-.3-.17-.17-.38,0-.38-.21-.38-.34-.13,0-.51c1.14-1.37.17-1.39-68.84-1.34-37,0-67.72.13-68.2.22" transform="translate(-10 -27.51)" style="fill:#ccc;fill-rule:evenodd"/><path id="path2" d="M24.84,27.77c-3.1.14-4,.55-3.6,1.71.17.54.11.67-.23.47s-.42.17-.23,1.75c.33,2.8.17,2.94-3.55,3.07L14,34.89l-.3,1.33a12.35,12.35,0,0,0-.08,3.33l.22,2H10v49.4h3.8l.06,1.62c0,.88,0,2,0,2.57-.19,2.66-3.34,2.45,39.32,2.57l38.28.1,1.93-1a15.74,15.74,0,0,0,2.72-1.72,3.13,3.13,0,0,1,1.08-.72c1.47,0,1.55-.76,1.79-17.07.19-12.64.37-16.44.88-19s.64-5.28.57-16c0-7,.06-13.11.21-13.58l.29-.86H299.47l.24,1.24c.14.68.25,6.84.24,13.69,0,10.85.08,13,.75,16.69s.76,5.88.76,18.23c0,9.07.13,14,.38,14s.38.51.38,1.14.19,1.14.54,1.14a.75.75,0,0,1,.66.31,20.24,20.24,0,0,0,4.62,3c1.29.55,72.86.64,75.27.09,2.14-.5,2.6-1.13,2.65-3.69S386.2,91,388.38,91H390V41.54h-3.42v-3c0-3-.4-4-1.59-3.83-.27,0-1.64.05-3,0l-2.53,0-.14-2.84c-.11-2.07-.33-3-.82-3.52s-340.9-1.17-353.64-.57M15.08,96.64c.37.5.34.5-.24,0a1.84,1.84,0,0,1-.62-1.33c0-.77.06-.77.23,0a4.42,4.42,0,0,0,.63,1.33" transform="translate(-10 -27.51)" style="fill:gray;fill-rule:evenodd"/><path id="path3" d="M121.44,28.15a1.18,1.18,0,0,1,.28.88c0,.58.27.73,1.33.73.73,0,1.33.17,1.33.38s.26.38.57.38c.74,0,.73.07-.27,1.76-.55.94-.69,1.47-.4,1.56s.4.39-.13,1.91a17.72,17.72,0,0,0-.37,3.13,5.17,5.17,0,0,1-.53,2.59c-.25.09-.39,2.73-.39,7.42v7.28l1.81,1.24A8.54,8.54,0,0,0,127,58.64c.26,0,.47.14.47.3,0,1.53,3.39,1.61,72.94,1.6,76.3,0,72.25.16,75.48-2.93l1.74-1.68-.21-8.24c-.26-10.22-.24-9.95-.65-9.95s-.4-2.19.13-2.41c.27-.1.07-.2-.42-.22-.71,0-.81-.14-.48-.54s.3-.63.14-.79.05-.52.46-.82c.71-.52.71-.54-.12-.54h-.86l.81-1.14c.45-.63.63-1.14.4-1.14-.43,0,.22-1.43.93-2,.21-.18.05-.21-.38-.07a50.6,50.6,0,0,1-5.7.59c-5.74.4-144.48.39-141.93,0,1.22-.19.39-.28-2.91-.32-2.55,0-4.86-.12-5.13-.19s-.38-.05-.22,0m-18.34.45a.87.87,0,0,0,.41.61.35.35,0,0,1,.1.57,12.77,12.77,0,0,0-.1,3.86c.35,5.81.41,23.48.07,23.48-.76,0-1.24,7.69-1.27,20.52,0,13.45-.19,15.29-1.42,16.77l-1.43,1.76a2.81,2.81,0,0,1-2.57,1.3l-1.58.06,1.41.15c2.32.24,4.52-1.48,5.64-4.41.69-1.82.74-3,.74-16.39,0-7.94.14-14.44.32-14.44.85,0,1.29-8,1.15-20.93-.13-12.33-.19-13.27-.81-13.27-.36,0-.66.16-.66.36m192.47-.09c.24.19.38,5.86.38,15.61,0,13.2.08,15.36.57,15.66s.6,2.69.76,16.42c.23,19,.22,18.9,4.37,21l1.14.59-1.2-1a13,13,0,0,1-2.28-2.78l-1.08-1.81L298.13,78c-.07-10.2-.27-15.37-.68-18.22s-.56-7.28-.55-16.72c0-7,0-12.92,0-13.13s-.08-.63-.11-.94a.94.94,0,0,0-.81-.69c-.43-.07-.59,0-.38.19m-59.34,1.54c-19.06.05-50.35.05-69.54,0s-3.61-.1,34.64-.1,53.95,0,34.9.1M268,30.9c0,.25-22.86.38-67.83.38s-67.83-.13-67.83-.38,22.86-.38,67.83-.38,67.83.13,67.83.38m.57,6.73a2.92,2.92,0,0,0-1.12.53c-.21.2-28.24.33-68,.31-37.21,0-67.45-.11-67.18-.22s.38-.35.26-.54,27-.33,68.3-.3c37.69,0,68.18.12,67.76.22m0,1.69c.75.34.87.56.54,1s-.31.51,0,.51.34.17.21.38-.05.38.17.38.4,2.43.4,7.36v7.36l-1.42.24c-.79.13-31.53.23-68.31.23s-67.52-.1-68.3-.23l-1.43-.24V48.9c0-4.93.13-7.36.4-7.36s.31-.16.18-.35.09-.54.46-.75.46-.4.2-.41c-.82,0-.52-.71.37-.88,2.19-.42,135.57-.25,136.5.17" transform="translate(-10 -27.51)" style="fill:#d4d4d4;fill-rule:evenodd"/><path id="path4" d="M34.23,27.76a21.63,21.63,0,0,0,3.22,0c.89-.08.17-.15-1.61-.15s-2.5.07-1.61.15m328.69,0a21.77,21.77,0,0,0,3.23,0c.89-.08.17-.15-1.61-.15s-2.5.07-1.62.15m-254.41.38c2,.07,5.38.07,7.42,0s.37-.12-3.71-.12-5.74.06-3.71.12m175.94,0c2,.07,5.38.07,7.42,0s.37-.12-3.71-.12-5.74.06-3.71.12M105,61.21c0,.57-.15,8.42-.28,17.43L104.43,95l-1,1c-1.19,1.19-2.87,1.73-5.35,1.73H96.26V224.63c0,98.15.1,126.94.46,127.3s.35.45,0,.45a1.2,1.2,0,0,1-.55-.09c-.06-.06-.18-57.38-.29-127.4l-.19-127.3-.1,127c0,69.85-.22,127.08-.38,127.17s-.24-57-.18-126.89l.09-127.08H92.46l-.1,127.78-.09,127.77-.1-127.77C92.09,112.27,92,97.78,91.51,97.78s-.57,14.91-.57,131.89V361.56l1.24-.07c1.9-.1,2.16.09.47.37l-1.52.25,1.78.17,1.77.17-.21-1.14a3.92,3.92,0,0,0-.54-1.5,2.39,2.39,0,0,1-.31-1.33c0-.9.06-.87.62.36a5.13,5.13,0,0,1,.54,2c0,.41.17.63.61.6,1.08-.08,2.76,1.19,2.49,1.89q-.22.6.21.33c.3-.18.42.05.36.7-.1,1.32-.52,1.22-.81-.19-.41-2.08-2.1-2.87-2.13-1,0,.17-.18.2-.39.07s-.4.29-.43,1c0,1-.08,1.1-.23.31-.37-2-3.14-2.91-3.14-1,0,.93.88,2,1.41,1.63.16-.1.32.29.34.88.06,1.58,1.45,3.26,3.38,4.05,1,.43,1.71.94,1.71,1.32,0,.61,1,1.08,2.42,1.09q.7,0,.48-.57c-.12-.31,0-.57.15-.57s.37.26.37.57.34.57.76.57a.68.68,0,0,0,.77-.66c0-.64,0-.64.4,0a1.75,1.75,0,0,0,2.63.09c.61-.73,1.14-.73,1.14,0s2,.77,3.1.1c.64-.38.83-.38,1,0,.22.61,177,.7,177.38.09a2,2,0,0,1,2.27,0,10.38,10.38,0,0,0,3.64.36c1.88,0,3.33-.15,3.23-.32s.05-.62.35-1c.49-.67.52-.65.42.33s0,1,1.1,1a2.36,2.36,0,0,0,2.48-2.59c0-1.2-.52-1.64-.89-.73-.1.26-.2.09-.22-.37s.13-.78.54-.63.57-.08.57-1.12c0-.73-.21-1.42-.47-1.53s-.08-.2.42-.22c.71,0,.86-.19.7-.79-.11-.42,0-.76.15-.76s.34.34.34.76c0,.61.25.76,1.28.76,1.26,0,1.29,0,1.26-1.6l0-1.61,1.59.11,1.59.12v-1.4c0-1.23-.1-1.38-.78-1.2-.5.13-.73,0-.63-.24a.7.7,0,0,1,.78-.34c.58.11.63-9.45.63-130.58V97.87l-5.26-.15-5.26-.14-1.3-1.29L296,95l-.24-16.75c-.14-9.21-.27-17-.29-17.41,0-.61-.65-.67-7.27-.67h-7.23l-.41.91a3,3,0,0,1-1.28,1.3c-1.44.66-1.43-.48-1.67,126.15-.16,85-.35,122.55-.63,122.74a6.63,6.63,0,0,0-1.07,2.06,9,9,0,0,1-4.69,4.89c-.69.23-1.25.54-1.25.71a19.2,19.2,0,0,1-4.37,1.33c-2.4.57-4.37,1.19-4.37,1.38s-.31.35-.69.35a3.36,3.36,0,0,0-2.35,2.34,2.71,2.71,0,0,1-.66,1.35,19.05,19.05,0,0,0-1.8,4.15,28.35,28.35,0,0,1-1.34,3.56,7.25,7.25,0,0,0-1.52,2.82c0,.89-3.25,4.4-4.08,4.4-.26,0-.48.15-.48.32,0,1.15-2.26,1.2-48.11,1.2-48.08,0-47.19,0-48.34-1.58a1.6,1.6,0,0,0-1-.7c-.61,0-2.14-2.69-2.14-3.75,0-.45-.14-.81-.32-.81s-.53-.73-.8-1.61c-.73-2.5-1.62-4.21-2.57-5a2.19,2.19,0,0,1-.87-1.21,3.81,3.81,0,0,0-1.09-1.6,6.28,6.28,0,0,1-1.34-1.89,3.49,3.49,0,0,0-1.67-1.47,7.19,7.19,0,0,1-1.6-.91,33.2,33.2,0,0,0-6.55-2.12c-.79-.14-1.43-.4-1.43-.57s-.58-.5-1.28-.73c-1.91-.63-4.26-3.43-5.06-6a9.64,9.64,0,0,0-1-2.39c-.16-.11-.34-55.6-.39-123.31l-.1-123.1L121,61.77l-1.66-1.61H105l0,1.05M14.05,94.93a3.89,3.89,0,0,0,.79,1.71c.5.51.52.49.18-.19-.21-.42-.57-1.19-.79-1.71-.39-.91-.4-.9-.18.19m176.1,27.39a22.56,22.56,0,0,0-4.94.85A6.73,6.73,0,0,1,183,124a8.12,8.12,0,0,0-2.92,1.35,19.43,19.43,0,0,1-4,2.1,18.12,18.12,0,0,0-3.81,1.94,2.32,2.32,0,0,1-1.19.66,13.48,13.48,0,0,0-3.06,2.47,25.62,25.62,0,0,1-2.76,2.47,5.6,5.6,0,0,0-1.28.86c-.58.47-1.39,1.11-1.8,1.42a14,14,0,0,0-4.09,4.35,19.23,19.23,0,0,1-2,2.79,3.81,3.81,0,0,0-.88,1.25,8.24,8.24,0,0,1-1.46,1.81,11.34,11.34,0,0,0-2,2.79,5.48,5.48,0,0,1-.77,1.45,24.38,24.38,0,0,0-1.27,4,20.6,20.6,0,0,1-1.31,4,18.57,18.57,0,0,0-2.33,5.12c0,.32-.16.59-.35.59-1.69,0-1.76,21.83-.08,23.18a19.94,19.94,0,0,1,1.38,2.47,18.38,18.38,0,0,0,1.38,2.47,27.41,27.41,0,0,1,1.29,4.18A29.21,29.21,0,0,0,151,201.9a9.39,9.39,0,0,1,.92,1.72,13.17,13.17,0,0,0,2.37,3.21,8.44,8.44,0,0,1,1.92,2.55c.12.49.34.88.49.88a4.92,4.92,0,0,1,1.13,1.72,5.9,5.9,0,0,0,1.94,2.27,3.63,3.63,0,0,1,1.2.86,5.86,5.86,0,0,0,1.36,1.17,6.57,6.57,0,0,1,1.84,2.16,3.16,3.16,0,0,0,1.34,1.52,2.22,2.22,0,0,1,1.11,1,1.34,1.34,0,0,0,.91.73c1,0,4.68,1.85,4.91,2.44a.92.92,0,0,0,.77.6,2.92,2.92,0,0,1,1.45,1.06c1.06,1.27,3.11,2.15,6.42,2.75a9.46,9.46,0,0,1,2.63.71c1.15,1.64,16.65,3.17,22,2.18,1.57-.29,4.94-.83,7.5-1.21a22.73,22.73,0,0,0,4.66-.95c0-.14.7-.37,1.56-.51a12.08,12.08,0,0,0,5.82-2.93,5.76,5.76,0,0,1,1.43-1.1,1.7,1.7,0,0,0,.76-.5,20.2,20.2,0,0,1,5.5-2.54.92.92,0,0,0,.76-.6,2.07,2.07,0,0,1,1.07-.92,3.45,3.45,0,0,0,1.45-1.59,7,7,0,0,1,1.86-2.2,22.33,22.33,0,0,0,3.49-2.89c1.57-1.54,2.52-2.85,2.52-3.48a6.92,6.92,0,0,1,1.67-2.2,14.45,14.45,0,0,0,2.33-3.12,6.62,6.62,0,0,1,1-1.62c.4-.27,1.81-4.53,2.11-6.41.13-.86.39-1.57.56-1.57s.43-.63.58-1.41c.3-1.61,1.61-4.75,2.11-5.08,2.27-1.47,2.25-21.93,0-22.69a.84.84,0,0,1-.43-.79,3.06,3.06,0,0,0-.53-1.4,11.45,11.45,0,0,1-1-2.93,5.92,5.92,0,0,0-.75-2.18,7.44,7.44,0,0,1-.73-2.56c-.78-4.23-1.51-5.69-4.23-8.53a16.54,16.54,0,0,1-1.84-2.4,13,13,0,0,0-1.3-1.81A18,18,0,0,1,242,141a6.43,6.43,0,0,0-1.3-1.81,10.79,10.79,0,0,1-1.88-1.52,9.34,9.34,0,0,0-1.9-1.52,25.52,25.52,0,0,1-3.16-2.81c-2.38-2.32-3.28-2.94-5.13-3.51a8,8,0,0,1-2.37-1c-.07-.16-.41-.29-.76-.29-1.13,0-4.77-1.92-5.75-3a6.45,6.45,0,0,0-4.4-1.92c-.48,0-.92-.16-1-.35-.45-1.25-15.95-1.85-24.23-1M93.82,356.43c-.22.58-.31.6-.61.12s-.36-.23-.36.68c0,.68-.2,1.23-.44,1.23-.53,0-.18-3,.5-4.29.56-1,1.38,1,.91,2.26m2.1,2.14c-.31.31-.42.27-.42-.16,0-.75.51-1.26.7-.7a.94.94,0,0,1-.28.86m-3.11.67c-.56.35-1.57,0-1.3-.4.11-.17.55-.21,1-.1s.65.29.32.5m1.08,1.15c.12.44.07.44-.25,0s-.41-.48-.41.1c0,.36-.19.66-.41.66s-.28-.21-.12-.47.08-.31-.36,0-.64.44-.64-.06c0-1,1.92-1.23,2.19-.24m212.51,3.42c0,.82.18,1.11.68,1.11,1.78,0,2.23-2.14.46-2.19-1,0-1.14.08-1.14,1.08M93.34,364c-.18.46-.29.48-.53.1-.35-.58-.07-1.2.42-.9a.69.69,0,0,1,.11.8m3.5.46c-.33.07-.47.31-.32.57s0,.19-.41-.11c-.61-.49-.62-.59-.08-1,.33-.24.56-.5.51-.59s.13.1.4.42c.41.47.4.59-.1.7" transform="translate(-10 -27.51)" style="fill:#f6f6f6;fill-rule:evenodd"/></g></svg>